<?xml version="1.0" encoding="UTF-8" standalone="no"?>
<svg
   xmlns:dc="http://purl.org/dc/elements/1.1/"
   xmlns:cc="http://creativecommons.org/ns#"
   xmlns:rdf="http://www.w3.org/1999/02/22-rdf-syntax-ns#"
   xmlns:svg="http://www.w3.org/2000/svg"
   xmlns="http://www.w3.org/2000/svg"
   xmlns:sodipodi="http://sodipodi.sourceforge.net/DTD/sodipodi-0.dtd"
   xmlns:inkscape="http://www.inkscape.org/namespaces/inkscape"
   version="1.1"
   viewBox="0 0 184.27817 184.27817"
   height="184.27817"
   width="184.27817"
   data-name="logo epfl 2019"
   id="logo_epfl_2019"
   sodipodi:docname="epfl.svg"
   inkscape:version="0.92.5 (2060ec1f9f, 2020-04-08)">
  <sodipodi:namedview
     pagecolor="#ffffff"
     bordercolor="#666666"
     borderopacity="1"
     objecttolerance="10"
     gridtolerance="10"
     guidetolerance="10"
     inkscape:pageopacity="0"
     inkscape:pageshadow="2"
     inkscape:window-width="3280"
     inkscape:window-height="1798"
     id="namedview15"
     showgrid="false"
     fit-margin-top="0"
     fit-margin-left="0"
     fit-margin-right="0"
     fit-margin-bottom="0"
     inkscape:zoom="7.7302634"
     inkscape:cx="9.7685584"
     inkscape:cy="96.297067"
     inkscape:window-x="144"
     inkscape:window-y="54"
     inkscape:window-maximized="1"
     inkscape:current-layer="logo_epfl_2019" />
  <metadata
     id="metadata27">
    <rdf:RDF>
      <cc:Work
         rdf:about="">
        <dc:format>image/svg+xml</dc:format>
        <dc:type
           rdf:resource="http://purl.org/dc/dcmitype/StillImage" />
        <dc:title>epfl-logo-new</dc:title>
      </cc:Work>
    </rdf:RDF>
  </metadata>
  <defs
     id="defs4">
    <style
       id="style2">.cls-1{fill:red;}</style>
  </defs>
  <title
     id="title6">epfl-logo-new</title>
  <path
     id="polygon8"
     d="M 0.6803641,86.61142 H 12.110364 v -11.8 h 26.91 v -9.8 H 0.6803641 Z"
     style="fill:#ff0000"
     inkscape:connector-curvature="0" />
  <path
     id="polygon10"
     d="M 0.6803641,118.01142 H 39.020364 v -9.8 h -26.91 v -11.8 H 0.6803641 Z"
     style="fill:#ff0000"
     inkscape:connector-curvature="0" />
  <path
     id="rect12"
     d="m 12.110364,86.61142 h 24.610001 v 9.800001 H 12.110364 Z"
     style="fill:#ff0000"
     inkscape:connector-curvature="0" />
  <path
     style="fill:#ff0000"
     id="path14"
     d="m 86.680364,69.88142 a 16.12,16.12 0 0 0 -5.68,-3.53 23.76,23.76 0 0 0 -8.5,-1.34 h -23.68 v 53 h 11.43 v -21.6 h 12.25 a 23.76,23.76 0 0 0 8.46,-1.34 16.12,16.12 0 0 0 5.72,-3.53 13.43,13.43 0 0 0 3.19,-5 17.38,17.38 0 0 0 0,-11.62 13.52,13.52 0 0 0 -3.19,-5.04 z m -8,13.86 a 5.7,5.7 0 0 1 -2.26,1.8 11.33,11.33 0 0 1 -3.27,0.85 32,32 0 0 1 -3.86,0.22 h -9.04 v -11.8 h 9.05 a 32,32 0 0 1 3.86,0.22 11,11 0 0 1 3.27,0.86 5.59,5.59 0 0 1 2.25,1.79 5,5 0 0 1 0.86,3 5,5 0 0 1 -0.86,3.06 z"
     class="cls-1"
     inkscape:connector-curvature="0" />
  <path
     id="polygon16"
     d="m 156.15036,108.21142 v -43.2 h -11.43 v 53 h 38.34 v -9.8 z"
     style="fill:#ff0000"
     inkscape:connector-curvature="0" />
  <path
     id="polygon18"
     d="m 98.100364,86.61142 h 11.429996 v -11.8 h 26.91 v -9.8 H 98.100364 Z"
     style="fill:#ff0000"
     inkscape:connector-curvature="0" />
  <path
     id="rect20"
     d="m 98.100362,96.41142 h 11.429998 v 21.6 H 98.100362 Z"
     style="fill:#ff0000"
     inkscape:connector-curvature="0" />
  <path
     id="rect22"
     d="m 109.53036,86.61142 h 24.61 v 9.800001 h -24.61 z"
     style="fill:#ff0000"
     inkscape:connector-curvature="0" />
</svg>
