<?xml version="1.0" encoding="UTF-8" standalone="no"?>
<!-- Created with Inkscape (http://www.inkscape.org/) -->

<svg
   version="1.1"
   id="svg2"
   width="683.21332"
   height="944.25336"
   viewBox="0 0 683.21332 944.25336"
   sodipodi:docname="itu.eps"
   xmlns:inkscape="http://www.inkscape.org/namespaces/inkscape"
   xmlns:sodipodi="http://sodipodi.sourceforge.net/DTD/sodipodi-0.dtd"
   xmlns="http://www.w3.org/2000/svg"
   xmlns:svg="http://www.w3.org/2000/svg">
  <defs
     id="defs6" />
  <sodipodi:namedview
     id="namedview4"
     pagecolor="#ffffff"
     bordercolor="#000000"
     borderopacity="0.25"
     inkscape:showpageshadow="2"
     inkscape:pageopacity="0.0"
     inkscape:pagecheckerboard="0"
     inkscape:deskcolor="#d1d1d1" />
  <g
     id="g8"
     inkscape:groupmode="layer"
     inkscape:label="ink_ext_XXXXXX"
     transform="matrix(1.3333333,0,0,-1.3333333,0,944.25333)">
    <g
       id="g10"
       transform="scale(0.1)">
      <path
         d="m 0,3540.93 c 0,1955.63 1147.06,3540.94 2562.04,3540.94 1414.98,0 2562.04,-1585.31 2562.04,-3540.94 C 5124.08,1585.3 3977.02,0 2562.04,0 1147.06,0 0,1585.3 0,3540.93"
         style="fill:#ffffff;fill-opacity:1;fill-rule:evenodd;stroke:none"
         id="path12" />
      <path
         d="m 114.219,3540.93 c 0,-767.07 183.324,-1561.35 584.808,-2220.19 C 1022.96,789.129 1508.83,324.672 2126.1,168.648 c 142.62,-36.066 288.81,-54.418 435.94,-54.418 147.14,0 293.33,18.352 435.97,54.418 617.27,156.051 1103.11,620.512 1427.05,1152.092 401.46,658.84 584.8,1453.12 584.8,2220.19 0,767.06 -183.34,1561.35 -584.8,2220.18 -323.94,531.61 -809.81,996.07 -1427.05,1152.1 -142.64,36.06 -288.83,54.43 -435.97,54.43 -147.13,0 -293.32,-18.37 -435.94,-54.41 C 1508.85,6757.19 1022.96,6292.73 699.027,5761.13 297.543,5102.28 114.219,4307.99 114.219,3540.93"
         style="fill:#2e3192;fill-opacity:1;fill-rule:evenodd;stroke:none"
         id="path14" />
      <path
         d="m 0,3540.93 c 0,1955.63 1147.06,3540.94 2562.04,3540.94 1414.98,0 2562.04,-1585.31 2562.04,-3540.94 C 5124.08,1585.3 3977.02,0 2562.04,0 1147.06,0 0,1585.3 0,3540.93"
         style="fill:#2e3192;fill-opacity:1;fill-rule:evenodd;stroke:none"
         id="path16" />
      <path
         d="m 114.219,3540.93 c 0,-767.07 183.324,-1561.35 584.808,-2220.19 C 1022.96,789.129 1508.83,324.672 2126.1,168.648 c 142.62,-36.066 288.81,-54.418 435.94,-54.418 147.14,0 293.33,18.352 435.97,54.418 617.27,156.051 1103.11,620.512 1427.05,1152.092 401.46,658.84 584.8,1453.12 584.8,2220.19 0,767.06 -183.34,1561.35 -584.8,2220.18 -323.94,531.61 -809.81,996.07 -1427.05,1152.1 -142.64,36.06 -288.83,54.43 -435.97,54.43 -147.13,0 -293.32,-18.37 -435.94,-54.41 C 1508.85,6757.19 1022.96,6292.73 699.027,5761.13 297.543,5102.28 114.219,4307.99 114.219,3540.93"
         style="fill:#ffffff;fill-opacity:1;fill-rule:evenodd;stroke:none"
         id="path18" />
      <path
         d="m 2006.31,311.781 c 29.74,0 48.8,4.008 57.19,11.981 8.38,8.179 12.56,23.59 12.59,46.218 v 225 c 0,14.45 -1.72,24.7 -5.16,30.801 -3.24,6.059 -9.35,9.141 -18.29,9.141 -4.77,0 -12.12,-1.641 -22.01,-4.883 -6.3,-1.891 -14.89,-4.93 -25.75,-9.098 v 14.829 l 147.83,63.589 H 2163 v -332.82 c 0,-21.289 3.44,-35.738 10.29,-43.359 6.89,-7.598 24.41,-11.399 52.63,-11.399 v -13.949 h -219.61 v 13.949"
         style="fill:#2e3192;fill-opacity:1;fill-rule:evenodd;stroke:none"
         id="path20" />
      <path
         d="m 2295.68,692.5 h 243.34 L 2401.49,297.832 H 2346 l 114.39,310.25 c -0.21,2.32 -0.68,3.797 -1.43,4.59 h -111.81 c -18.31,0 -31.73,-2.953 -40.33,-8.84 -8.37,-5.922 -15.91,-19.59 -22.58,-41.062 h -14.29 l 25.73,129.73"
         style="fill:#2e3192;fill-opacity:1;fill-rule:evenodd;stroke:none"
         id="path22" />
      <path
         d="m 2588.48,692.5 h 243.34 L 2694.27,297.832 h -55.47 l 114.39,310.25 c -0.2,2.32 -0.67,3.797 -1.43,4.59 h -111.8 c -18.31,0 -31.74,-2.953 -40.32,-8.84 -8.39,-5.922 -15.91,-19.59 -22.59,-41.062 h -14.31 l 25.74,129.73"
         style="fill:#2e3192;fill-opacity:1;fill-rule:evenodd;stroke:none"
         id="path24" />
      <path
         d="m 2947.64,347.141 c 18.86,-19 34.39,-28.5 46.62,-28.5 20.95,0 35.9,7.031 44.89,21.101 9.12,14.258 13.72,30.41 13.72,48.488 0,33.258 -14.01,60.43 -42.06,81.559 -16.01,11.781 -41.38,23.883 -76.06,36.211 v 9.41 c 23.64,8.211 40.52,16.07 50.63,23.68 17.32,13.109 26.02,30.871 26.02,53.34 0,19.359 -5.92,34.109 -17.73,44.199 -11.64,10.269 -26.49,15.402 -44.61,15.402 -16.78,0 -31.94,-6.101 -45.48,-18.261 -7.6,-6.848 -15.7,-17.02 -24.28,-30.52 l -12.31,6.852 c 9.16,19.398 22.2,36.679 39.17,51.898 27.08,24.34 58.7,36.48 94.94,36.512 24.95,0 46.7,-7.043 65.19,-21.102 18.51,-14.078 28.68,-32.418 30.59,-55.031 0,-16.18 -3.6,-30.649 -10.86,-43.379 -7.05,-12.539 -18.57,-22.91 -34.59,-31.09 v -4.269 c 23.42,-9.301 40.59,-23.391 51.46,-42.231 10.88,-18.578 16.31,-38.301 16.31,-58.988 0,-41.84 -16.22,-77.481 -48.6,-106.973 -33.76,-30.969 -76.46,-46.469 -128.1,-46.5 -25.18,0 -46.14,4.793 -62.94,14.301 -16.76,9.469 -25.15,22.039 -25.15,37.621 0,8.379 2.93,16.238 8.86,23.688 6.1,7.601 16,11.39 29.74,11.39 17.72,0 35.94,-9.617 54.63,-28.808"
         style="fill:#2e3192;fill-opacity:1;fill-rule:evenodd;stroke:none"
         id="path26" />
      <path
         d="m 740.266,2803.69 9.933,2.09 40.614,-191.04 -9.946,-2.09 -2.582,12.13 c -2.238,10.59 -6.004,18.71 -11.133,24.37 -3.476,4.18 -8.558,6.82 -15.242,7.99 -4.683,1.14 -16.191,-0.26 -34.574,-4.17 l -240.32,-51.07 c -18.692,-3.98 -30.141,-7.47 -34.414,-10.5 -4.25,-2.92 -7.489,-7.72 -9.672,-14.55 -2.239,-6.71 -2.25,-15.27 -0.075,-25.47 l 2.594,-12.16 -10.035,-2.14 -40.605,191.04 10.015,2.14 2.594,-12.14 c 2.238,-10.61 5.902,-18.75 11.043,-24.4 3.574,-4.14 8.574,-6.9 15.328,-8.28 4.703,-1.01 16.25,0.41 34.535,4.29 l 240.336,51.08 c 18.676,3.96 30.129,7.47 34.383,10.45 4.246,3.14 7.441,8.06 9.652,14.75 2.305,6.86 2.317,15.32 0.149,25.52 z M 297.645,2609.61 c -2.332,10.93 -0.465,21.15 5.613,30.53 6.078,9.36 14.652,15.22 25.594,17.56 10.933,2.29 21.148,0.43 30.507,-5.66 9.356,-6.07 15.215,-14.64 17.555,-25.57 2.316,-10.97 0.445,-21.13 -5.629,-30.52 -6.094,-9.36 -14.637,-15.21 -25.597,-17.55 -10.93,-2.34 -21.137,-0.47 -30.508,5.63 -9.375,6.09 -15.219,14.63 -17.535,25.58 z m 38.433,424.91 123.199,18.24 1.387,-11.28 c -30.351,-9.03 -53.668,-25.04 -70.062,-48.1 -16.321,-23.03 -23.004,-46.5 -20.032,-70.58 2.258,-18.57 9.024,-32.71 20.328,-42.3 11.243,-9.7 23.383,-13.71 36.36,-12.13 8.117,1.03 15.242,3.89 21.133,8.49 7.941,6.27 15.386,15.8 22.257,28.52 5.012,9.32 13.219,30.4 24.719,63.28 16.055,46 32.613,77.68 49.711,95.11 17.106,17.36 37.836,27.49 62.277,30.47 30.989,3.82 59.165,-5.04 84.426,-26.37 25.274,-21.44 40.246,-50.76 44.805,-87.9 1.434,-11.66 1.578,-22.92 0.516,-33.56 -1.161,-10.66 -4.032,-24.28 -8.633,-40.74 -2.567,-9.22 -3.453,-16.63 -2.77,-22.25 0.586,-4.76 2.989,-9.57 7.27,-14.34 4.277,-4.88 10.414,-8.48 18.269,-10.82 l 1.242,-10.08 -139.98,-17.21 -1.234,10.09 c 38.386,12.86 66.464,31.94 84.347,57.43 17.926,25.41 25.25,51.34 22,77.75 -2.496,20.42 -10.097,35.98 -22.679,46.73 -12.598,10.78 -26.317,15.25 -41.063,13.43 -8.773,-1.07 -16.98,-4.42 -24.625,-10.11 -7.547,-5.68 -14.512,-13.65 -20.723,-24.05 -6.21,-10.44 -13.773,-28.31 -22.664,-53.84 -12.48,-35.75 -23.574,-61.72 -33.437,-77.9 -9.844,-16.26 -21.516,-29.18 -34.91,-38.88 -13.414,-9.69 -28.774,-15.66 -46.133,-17.79 -29.492,-3.61 -56.031,4.22 -79.488,23.32 -23.411,19.18 -37.125,45.25 -41.172,78.22 -1.481,12.05 -1.496,23.88 0,35.52 1.207,8.85 3.929,19.78 8.379,32.76 4.382,13.04 6.297,22.07 5.699,26.93 -0.582,4.75 -2.524,8.3 -5.742,10.64 -3.254,2.44 -10.555,4.14 -21.95,5.1 z m -27.484,429.69 101.023,5.29 0.528,-9.86 c -23.075,-7.12 -39.442,-14.5 -49.211,-22.15 -9.848,-7.67 -17.422,-17.96 -22.77,-30.77 -3.031,-7.12 -3.976,-19.4 -3.074,-36.77 l 1.457,-27.79 287.699,15.07 c 19.067,0.99 30.934,2.65 35.617,4.98 4.68,2.42 8.598,6.77 11.832,13.07 3.356,6.38 4.696,14.83 4.125,25.44 l -0.652,12.36 10.141,0.56 10.25,-195.31 -10.164,-0.53 -0.637,12.39 c -0.555,10.81 -3.004,19.4 -7.176,25.79 -2.797,4.66 -7.402,8.2 -13.848,10.58 -4.425,1.84 -16.031,2.28 -34.804,1.29 l -287.703,-15.07 1.429,-27.06 c 1.309,-25.07 7.52,-43.12 18.832,-53.9 15.664,-15.18 37.418,-24.11 65.145,-26.9 l 0.551,-10.44 -101.039,-5.28 z m 278.258,235.27 -4.61,-131.85 35.824,-16.97 c 11.938,-5.58 21.813,-8.46 29.711,-8.74 10.524,-0.36 18.375,3.6 23.551,11.88 3.18,4.79 5.758,16.94 7.949,36.32 l 10.141,-0.34 -4.324,-124.13 -10.16,0.35 c -1.59,13.4 -6.75,24.7 -15.555,33.57 -8.715,8.94 -27.156,20.33 -55.203,33.92 l -293.18,143.92 0.176,5.26 310.836,123.87 c 29.492,11.85 48.086,21.75 55.898,29.75 5.961,6.1 9.551,14.82 10.871,26.16 l 10.164,-0.35 -6.312,-180.62 -10.149,0.36 0.258,7.42 c 0.5,14.47 -1.199,24.79 -5.039,30.75 -2.765,4.14 -6.933,6.36 -12.472,6.55 -3.286,0.11 -6.692,-0.32 -10.207,-1.34 -1.704,-0.32 -8.665,-2.8 -20.957,-7.53 z m -20.715,-8.7 -130.485,-51.02 126.532,-61.82 z M 343.789,4058 l 252.418,154.68 -159.422,19.57 c -22.195,2.73 -37.601,1.4 -46.226,-3.98 -11.621,-7.49 -18.547,-21.51 -20.719,-42.16 l -10.172,1.24 15.039,122.43 10.16,-1.26 c 0.043,-15.9 1.383,-26.67 3.887,-32.49 2.512,-5.79 7.223,-10.65 14.039,-14.5 6.824,-3.87 19.055,-6.88 36.5,-9.04 l 308.711,-37.9 -1.149,-9.32 -339.492,-212.77 235.739,-28.93 c 21.277,-2.63 36.234,0.46 44.902,9.34 8.758,8.78 13.867,19.54 15.394,32.02 l 1.082,8.79 10.086,-1.25 -16.152,-131.47 -10.074,1.21 c 2.34,20.48 -0.133,35.18 -7.344,44.18 -7.242,9.07 -20.66,14.77 -40.351,17.18 L 378.98,3975.73 368.105,3969 c -10.761,-6.63 -18.046,-12.76 -21.972,-18.42 -3.797,-5.62 -6.555,-14.06 -8.32,-25.3 l -10.172,1.22 z m 269.137,504.66 c 15.961,32.68 31.351,54.68 46.027,65.98 20.945,16.28 44.328,21.42 70.246,15.43 27.387,-6.31 47.489,-22.55 60.27,-48.66 15.48,-32.02 17.215,-73.83 5.32,-125.32 l -42.703,-184.97 -9.891,2.3 c 3.899,16.86 4.957,28.57 3.153,35.36 -1.743,6.68 -4.805,11.82 -9.301,15.34 -4.461,3.66 -16.473,7.7 -36.149,12.24 l -236.171,54.51 c -19.707,4.56 -32.364,6.22 -38.047,4.92 -5.684,-1.2 -10.715,-4.57 -15.129,-9.92 -4.52,-5.32 -8.613,-16.34 -12.465,-33.01 l -9.981,2.29 40.27,174.43 c 9.637,41.7 20.219,70.42 31.637,86.02 11.437,15.7 25.679,26.78 42.738,33.38 17.074,6.67 33.969,7.97 50.563,4.12 17.585,-4.04 31.683,-13.94 42.5,-29.87 10.73,-15.81 16.472,-40.65 17.113,-74.57 z m -29.867,-95.98 c 5.863,25.38 7.339,44.71 4.441,58.14 -2.973,13.4 -8.895,24.53 -17.75,33.42 -8.875,8.8 -21.398,15.09 -37.531,18.8 -16.031,3.71 -29.969,3.55 -41.789,-0.39 -11.723,-3.95 -21.586,-11.23 -29.723,-21.8 -8.141,-10.58 -15.07,-28.95 -20.934,-55.09 z m 20.984,-4.84 116.719,-26.95 13.41,-3.4 c 9.621,-2.2 17.488,-1.51 23.582,2.3 6,3.81 10.141,10.48 12.387,20.18 3.297,14.3 3.222,28.22 -0.395,41.78 -3.519,13.55 -10.652,24.93 -21.25,34.16 -10.523,9.26 -23.23,15.59 -38.09,19.01 -17.031,3.93 -33.234,3.54 -48.515,-1.24 -15.297,-4.78 -27.211,-13.4 -35.832,-26 -8.571,-12.48 -15.907,-32.51 -22.016,-59.84 z m -120.57,312.59 62.738,182.25 9.707,-3.35 -3.129,-9.06 c -4.719,-13.69 -6.535,-23.61 -5.469,-29.73 1.075,-6.14 3.813,-11.17 8.047,-15.01 4.34,-3.89 16.571,-9.38 36.66,-16.3 l 172.911,-59.55 c 31.648,-10.9 53.363,-15.7 65.332,-14.43 11.882,1.28 23.015,6.2 33.625,14.76 10.523,8.63 18.644,21.24 24.402,37.96 6.59,19.1 7.914,36.84 3.926,53.24 -3.969,16.47 -12.336,30.6 -25.16,42.47 -12.833,11.86 -37.977,24.31 -75.477,37.23 l -144.027,49.59 c -15.813,5.44 -27.696,7.64 -35.579,6.68 -7.91,-0.97 -14.035,-3.52 -18.343,-7.6 -6.668,-6.48 -12.442,-16.82 -17.371,-31.11 l -9.696,3.33 42.075,122.12 9.671,-3.31 -2.503,-7.29 c -3.403,-9.85 -4.286,-18.81 -2.555,-26.76 1.742,-7.95 6.039,-14.8 13.035,-20.49 4.824,-4.18 14.383,-8.76 28.801,-13.71 l 134.14,-46.19 c 41.52,-14.3 70.524,-27.36 87.067,-39.13 16.496,-11.85 28.801,-30.99 36.98,-57.49 8.188,-26.48 5.949,-58.11 -6.664,-94.76 -10.508,-30.48 -22.734,-52.72 -36.672,-66.62 -18.925,-18.84 -38.675,-30.03 -59.265,-33.5 -20.641,-3.31 -45.551,-0.03 -74.961,10.13 l -172.922,59.54 c -20.277,6.97 -33.262,10.26 -39.035,9.64 -5.758,-0.51 -11.004,-3.06 -15.871,-7.65 -4.926,-4.48 -9.77,-14.24 -14.739,-29.23 z m 518.117,632.72 111.74,-70.1 -145.416,-298.15 -9.125,4.46 5.434,11.15 c 4.738,9.72 6.797,18.46 6.226,26.06 -0.191,5.42 -2.551,10.65 -7.058,15.79 -3.036,3.67 -12.969,9.65 -29.852,17.91 l -220.84,107.69 c -17.14,8.37 -28.336,12.68 -33.511,13.01 -5.2,0.23 -10.715,-1.59 -16.629,-5.59 -5.887,-3.93 -11.176,-10.66 -15.746,-20.05 l -5.434,-11.15 -9.215,4.5 87.34,179.07 9.195,-4.51 -7.129,-14.62 c -4.777,-9.79 -6.875,-18.39 -6.336,-26.07 0.309,-5.4 2.555,-10.66 6.961,-15.97 3.11,-3.71 13.055,-9.72 29.875,-17.91 l 213.887,-104.34 c 17.152,-8.36 28.645,-12.71 34.223,-13.01 5.71,-0.28 11.12,1.78 16.25,6.5 3.56,3.41 9.09,13.04 16.79,28.85 l 13.65,27.97 c 8.7,17.83 12.83,34.22 12.39,49.19 -0.48,14.88 -5.35,30.02 -14.75,45.27 -9.29,15.31 -25.22,33.23 -47.889,53.91 z m 70.74,551.27 82.87,-58.03 -5.65,-8.08 c -22.57,8.56 -40,12.87 -52.44,12.84 -12.47,0.01 -24.77,-3.43 -36.86,-10.24 -6.76,-3.74 -15.08,-12.84 -25.07,-27.1 l -15.98,-22.8 236.01,-165.24 c 15.63,-10.94 26.01,-16.94 31.12,-17.99 5.17,-0.99 10.94,0.03 17.35,2.98 6.59,2.98 12.84,8.81 18.94,17.53 l 7.12,10.15 8.3,-5.8 -112.16,-160.21 -8.32,5.83 7.11,10.14 c 6.21,8.86 9.61,17.16 10.23,24.76 0.67,5.39 -0.78,11.02 -4.4,16.84 -2.35,4.2 -11.22,11.66 -26.63,22.45 l -235.983,165.24 -15.543,-22.18 c -14.391,-20.56 -20.59,-38.59 -18.352,-54.07 3.004,-21.61 14.653,-42.04 34.778,-61.3 l -5.993,-8.55 -82.859,58.03 z m 167.59,157.01 111.2,-103.69 5.07,5.42 c 16.15,17.33 22.39,34.91 18.83,52.9 -3.63,17.9 -15.1,37.85 -34.22,59.81 l 7.12,7.61 143.03,-133.36 -7.12,-7.65 c -17.15,12.91 -33.01,21.41 -47.79,25.56 -14.85,4.05 -27.09,4.29 -36.96,0.63 -9.7,-3.67 -20.74,-12.04 -32.83,-25.03 l 76.95,-71.75 c 15.04,-14.05 24.77,-21.96 29.34,-23.8 4.54,-1.9 9.54,-2.07 14.94,-0.54 5.41,1.39 11.71,6.07 18.98,13.91 l 15.22,16.29 c 23.79,25.51 36.93,51.46 39.44,77.89 2.62,26.35 -5.14,54.16 -23.04,83.48 l 6.91,7.41 75.45,-93.22 -220.22,-236.12 -7.41,6.92 8.45,9.06 c 7.38,7.92 11.89,15.66 13.57,23.11 1.41,5.23 0.68,10.92 -2.2,17.08 -1.76,4.46 -9.5,13.09 -23.25,25.92 l -179.7,167.56 c -12.37,11.54 -20.24,18.25 -23.71,20.21 -5.89,3.06 -11.91,3.89 -17.8,2.69 -8.57,-1.63 -16.92,-6.83 -25.2,-15.71 l -8.45,-9.08 -7.49,7 213.21,228.65 80.79,-75.36 -7.11,-7.63 c -23.39,14.49 -42.64,22.24 -57.84,23.18 -15.12,1.01 -30.74,-3.07 -46.79,-12.28 -9.47,-5.16 -23.79,-18.18 -43.09,-38.89 z m 481.91,245.23 199.7,-66.38 c 28.23,-9.26 50.17,-13.73 65.89,-13.38 11.36,0.43 21.61,3.48 30.69,9.37 l 5.52,-8.51 -163.08,-105.91 -5.53,8.53 c 9.73,7.65 15.26,13.61 16.8,17.84 1.59,4.28 1.23,8.09 -0.98,11.47 -4.19,6.47 -19.23,14.1 -45,22.71 l -130.5,43.71 -5.31,-17.24 55.52,-85.47 c 10.6,-16.31 18.15,-25.88 22.65,-28.66 4.43,-2.86 10.17,-3.94 17.22,-3.4 7.19,0.5 16.46,4.52 28.04,12.04 l 5.53,-8.51 -157.99,-102.62 -5.55,8.52 10.41,6.76 c 9.06,5.89 15.32,12.3 18.73,19.11 2.65,4.75 3.33,10.45 2.02,17.11 -0.64,4.77 -6.14,14.97 -16.37,30.74 l -133.8,206.06 c -10.4,16 -17.7,25.49 -22.06,28.4 -4.25,2.94 -9.98,4.16 -17.05,3.82 -7.16,-0.38 -15.05,-3.37 -23.82,-9.07 l -10.4,-6.74 -5.59,8.58 155.89,101.23 5.58,-8.58 c -10.56,-6.87 -17.71,-13.65 -21.23,-20.31 -2.59,-4.81 -3.38,-10.48 -2.4,-17.03 0.62,-5.06 6.08,-15.55 16.37,-31.41 l 63.29,-97.47 55.19,169.48 c 7.67,23.6 8.98,39.35 3.93,47.17 -3.88,5.92 -10.15,8.34 -18.95,7.42 -4.54,-0.47 -13.64,-4.93 -27.35,-13.15 l -5.58,8.59 122.23,79.37 5.57,-8.58 c -10.44,-7.91 -17.73,-15.33 -21.93,-22.54 -4.23,-7.25 -11.63,-27.3 -22.32,-60.02 z m 319.09,319.58 243.96,-167.68 -46.95,153.57 c -6.53,21.41 -14.03,34.94 -22.45,40.63 -11.56,7.58 -27.16,8.19 -46.94,1.76 l -2.99,9.81 117.96,36.06 2.98,-9.8 c -14.49,-6.49 -23.8,-12.11 -28.1,-16.76 -4.27,-4.65 -6.78,-10.93 -7.54,-18.73 -0.76,-7.8 1.44,-20.19 6.59,-36.99 l 90.94,-297.44 -8.97,-2.76 -332.47,223.6 69.46,-227.12 c 6.24,-20.51 15.15,-32.92 26.8,-37.23 11.58,-4.42 23.47,-4.73 35.52,-1.05 l 8.46,2.6 2.96,-9.71 -126.7,-38.73 -2.97,9.7 c 19.64,6.2 32.08,14.43 37.39,24.7 5.3,10.29 5.08,24.85 -0.72,43.83 l -77.09,252.13 -10.54,7.19 c -10.46,7.13 -19,11.3 -25.79,12.59 -6.65,1.19 -15.51,0.25 -26.5,-2.71 l -2.99,9.82 z m 577.38,-277.38 0.15,-10.13 -195.24,-3.43 -0.18,10.16 12.41,0.22 c 10.81,0.19 19.51,2.32 26.02,6.28 4.76,2.63 8.33,7.11 10.78,13.45 1.98,4.36 2.8,15.94 2.47,34.74 l -4.29,245.65 c -0.32,19.06 -1.54,31 -3.71,35.77 -2.06,4.74 -6.16,8.82 -12.45,12.29 -6.16,3.45 -14.55,5.1 -24.99,4.91 l -12.4,-0.22 -0.18,10.25 195.26,3.43 0.17,-10.25 -12.42,-0.22 c -10.81,-0.21 -19.52,-2.23 -26.03,-6.21 -4.74,-2.71 -8.43,-7.1 -11.04,-13.44 -1.91,-4.46 -2.75,-16.03 -2.41,-34.75 l 4.29,-245.65 c 0.32,-19.08 1.58,-30.99 3.74,-35.75 2.21,-4.75 6.45,-8.82 12.63,-12.3 6.23,-3.54 14.54,-5.18 24.97,-5.01 z m -106.05,471.55 c 11.18,0.19 20.84,-3.59 28.88,-11.34 8.05,-7.77 12.16,-17.29 12.34,-28.47 0.2,-11.19 -3.59,-20.85 -11.35,-28.88 -7.76,-8.04 -17.26,-12.15 -28.45,-12.35 -11.18,-0.19 -20.84,3.58 -28.88,11.35 -8.04,7.76 -12.16,17.28 -12.36,28.46 -0.19,11.19 3.61,20.85 11.35,28.87 7.76,8.04 17.27,12.15 28.47,12.36 z m 396.99,-291.73 94.28,-188.16 c 13.41,-26.5 25.78,-45.19 37.11,-56.04 8.33,-7.74 17.75,-12.8 28.33,-15.06 l -2.11,-9.93 -190.2,40.43 2.12,9.92 c 12.27,-1.46 20.42,-1.15 24.49,0.75 4.14,1.91 6.59,4.86 7.44,8.81 1.59,7.54 -3.65,23.55 -15.8,47.87 l -61.37,123.2 -15.91,-8.44 -21.19,-99.71 c -4.06,-19.03 -5.49,-31.13 -4.26,-36.28 1.11,-5.16 4.4,-9.98 9.76,-14.58 5.45,-4.71 14.84,-8.45 28.36,-11.32 l -2.1,-9.94 -184.29,39.18 2.1,9.94 12.13,-2.58 c 10.58,-2.24 19.56,-2.14 26.78,0.27 5.23,1.5 9.71,5.04 13.51,10.67 2.94,3.81 6.26,14.92 10.17,33.32 l 51.08,240.31 c 3.96,18.66 5.54,30.55 4.51,35.67 -0.96,5.1 -4.13,10.01 -9.37,14.78 -5.33,4.78 -13.04,8.26 -23.25,10.42 l -12.13,2.58 2.09,10.02 181.86,-38.65 -2.16,-10.02 c -12.29,2.62 -22.16,2.87 -29.34,0.67 -5.25,-1.58 -9.84,-5.03 -13.75,-10.35 -3.13,-4.04 -6.7,-15.31 -10.63,-33.79 l -24.17,-113.68 158.88,80.83 c 22.1,11.25 34.17,21.47 36.1,30.58 1.45,6.91 -1.26,13.05 -8.17,18.64 -3.49,2.87 -13.1,6.17 -28.6,10.04 l 2.13,10.03 142.55,-30.31 -2.12,-10.02 c -13.01,1.78 -23.39,1.7 -31.46,-0.44 -8.13,-2.13 -27.52,-11.06 -58.22,-26.65 z m 488.42,-45.46 161.65,-104.97 -5.57,-8.59 -8.06,5.22 c -12.14,7.88 -21.3,12.04 -27.55,12.48 -6.21,0.44 -11.71,-0.98 -16.49,-4.19 -4.8,-3.26 -13.1,-13.77 -24.69,-31.62 l -99.59,-153.36 c -18.24,-28.06 -28.13,-47.98 -29.81,-59.9 -1.64,-11.83 0.47,-23.83 6.18,-36.19 5.83,-12.31 16.09,-23.23 30.93,-32.87 16.96,-11.02 33.84,-16.57 50.69,-16.67 16.96,-0.13 32.68,4.57 47.33,14.14 14.59,9.55 32.76,30.96 54.35,64.23 l 82.97,127.73 c 9.13,14.04 14.12,25.02 15.1,32.93 0.96,7.89 -0.03,14.45 -2.94,19.62 -4.63,8.05 -13.3,16.15 -25.97,24.4 l 5.57,8.59 108.35,-70.36 -5.6,-8.61 -6.47,4.21 c -8.74,5.68 -17.19,8.69 -25.36,8.94 -8.14,0.25 -15.82,-2.27 -23.03,-7.68 -5.19,-3.69 -11.95,-11.87 -20.26,-24.62 l -77.26,-119.02 c -23.9,-36.79 -43.61,-61.8 -59.02,-74.99 -15.48,-13.14 -37.06,-20.45 -64.72,-21.97 -27.7,-1.53 -57.84,8.29 -90.34,29.39 -27.02,17.55 -45.66,34.81 -55.77,51.69 -13.71,22.92 -19.8,44.8 -18.17,65.61 1.79,20.83 11,44.21 27.96,70.3 l 99.58,153.37 c 11.69,18 18.02,29.79 18.81,35.55 0.91,5.7 -0.29,11.41 -3.57,17.24 -3.17,5.86 -11.45,12.92 -24.8,21.37 z m 262.6,-39.14 c 8.6,-5.58 13.9,-13.29 16,-23.17 1.99,-9.9 0.23,-18.98 -5.3,-27.49 -5.48,-8.46 -13.19,-13.76 -23.06,-15.86 -9.91,-2.1 -19.09,-0.38 -27.55,5.1 -8.5,5.52 -13.72,13.18 -15.92,23.12 -2.1,9.88 -0.38,19.09 5.1,27.52 5.55,8.52 13.18,13.75 23.13,15.94 9.94,2.05 19.08,0.37 27.6,-5.16 z m -86.44,56.12 c 8.6,-5.57 14,-13.34 16.01,-23.18 1.98,-9.91 0.32,-19.02 -5.23,-27.54 -5.48,-8.43 -13.16,-13.73 -23.13,-15.8 -9.9,-2.1 -19.01,-0.43 -27.51,5.1 -8.47,5.48 -13.77,13.2 -15.88,23.08 -2.09,9.89 -0.46,19.13 5.02,27.57 5.53,8.53 13.27,13.68 23.2,15.87 9.89,2.11 19.1,0.38 27.52,-5.1 z m 314.93,-408.79 -48.85,-291.97 119.35,107.46 c 16.65,14.97 25.74,27.47 27.34,37.52 1.95,13.68 -4.09,28.1 -18.25,43.28 l 7.65,6.87 82.52,-91.67 -7.64,-6.86 c -12.01,10.42 -21.02,16.48 -27.05,18.39 -6.04,1.92 -12.78,1.54 -20.14,-1.06 -7.41,-2.62 -17.7,-9.86 -30.79,-21.63 l -231.15,-208.12 -6.29,6.98 62.17,395.8 -176.51,-158.92 c -15.91,-14.34 -23.41,-27.66 -22.39,-40.03 0.88,-12.36 5.63,-23.26 14.04,-32.62 l 5.92,-6.57 -7.54,-6.81 -88.62,98.46 7.55,6.8 c 13.9,-15.18 26.61,-22.98 38.15,-23.44 11.57,-0.47 24.7,5.88 39.45,19.18 l 195.89,176.4 2.08,12.6 c 2.05,12.48 2.22,21.99 0.5,28.67 -1.73,6.55 -6.3,14.2 -13.65,22.89 l 7.62,6.85 z m 24.35,-621.42 -8.43,-5.66 -109.2,161.89 8.42,5.67 6.94,-10.27 c 6.04,-8.97 12.57,-15.12 19.45,-18.43 4.78,-2.55 10.49,-3.14 17.14,-1.71 4.76,0.72 14.89,6.33 30.49,16.84 l 203.69,137.38 c 15.83,10.68 25.15,18.2 27.99,22.61 2.81,4.31 4.01,9.98 3.49,17.11 -0.44,7.08 -3.64,15.01 -9.47,23.67 l -6.94,10.28 8.49,5.74 109.22,-161.9 -8.5,-5.74 -6.94,10.29 c -6.04,8.98 -12.51,15.16 -19.4,18.47 -4.86,2.49 -10.55,3.19 -17.28,1.93 -4.78,-0.82 -14.96,-6.45 -30.46,-16.92 l -203.69,-137.36 c -15.8,-10.69 -25.12,-18.21 -27.95,-22.61 -2.77,-4.47 -3.88,-10.22 -3.41,-17.28 0.44,-7.21 3.54,-15.05 9.41,-23.71 z m 337.7,345.75 c 6.26,-9.29 8.36,-19.43 6.2,-30.41 -2.09,-10.95 -7.83,-19.6 -17.13,-25.85 -9.27,-6.26 -19.45,-8.35 -30.41,-6.21 -10.93,2.12 -19.6,7.88 -25.83,17.14 -6.27,9.3 -8.37,19.44 -6.24,30.4 2.15,10.97 7.89,19.61 17.18,25.88 9.26,6.23 19.4,8.33 30.36,6.18 10.97,-2.12 19.63,-7.86 25.87,-17.13 z m 186.01,-534.25 -9.06,-4.8 c -8.24,10.94 -20.35,18.24 -36.22,21.84 -11.75,2.49 -36.14,2.49 -73.33,-0.03 l -312.4,-20.32 -4.23,7.96 202,252.56 c 24.38,30.43 38.13,49.46 41.17,56.94 3.11,7.61 1.94,18.18 -3.42,31.72 l 9.04,4.81 84.05,-158.08 -9.05,-4.81 -2.85,5.33 c -7.58,14.28 -14.49,23.05 -20.84,26.4 -4.38,2.45 -8.93,2.36 -13.67,-0.14 -2.9,-1.55 -6.04,-4.07 -9.36,-7.43 -3.21,-3.4 -11.57,-13.51 -24.99,-30.11 l -126.72,-157.58 180.77,12.52 c 21.81,1.6 36.24,3.09 43.15,4.52 6.95,1.35 12.54,3.26 16.77,5.5 4.8,2.57 8.47,6.11 10.78,10.76 2.38,4.57 3.17,9.89 2.41,15.9 -0.86,8.45 -4.46,18.45 -10.56,29.9 l 9.06,4.81 z m 53.12,-191.46 -139.96,-59.39 2.91,-6.84 c 9.25,-21.81 22.8,-34.66 40.65,-38.72 17.84,-3.96 40.73,-1.61 68.56,6.94 l 4.08,-9.63 -180.02,-76.4 -4.07,9.59 c 18.75,10.42 32.97,21.46 42.75,33.28 9.78,11.92 14.97,23 15.62,33.5 0.6,10.37 -2.55,23.84 -9.52,40.17 l -96.83,-41.09 c -18.95,-8.05 -30.15,-13.71 -33.67,-17.14 -3.59,-3.36 -5.77,-7.87 -6.56,-13.42 -0.94,-5.51 0.79,-13.17 4.95,-23.02 l 8.71,-20.5 c 13.65,-32.11 31.99,-54.66 55.11,-67.72 23.01,-13.11 51.56,-17.34 85.64,-12.89 l 3.98,-9.34 -115.86,-31.01 -126.17,297.22 9.35,3.98 4.87,-11.43 c 4.22,-9.97 9.44,-17.24 15.56,-21.79 4.24,-3.44 9.72,-5.09 16.5,-4.96 4.83,-0.22 15.84,3.36 33.15,10.72 l 226.16,95.98 c 15.57,6.62 24.9,11.09 28.08,13.47 5.21,4.12 8.43,9.29 9.73,15.15 1.99,8.5 0.62,18.25 -4.11,29.41 l -4.83,11.43 9.41,4 122.16,-287.77 -101.69,-43.18 -4.09,9.62 c 22.74,15.48 37.67,29.87 44.7,43.39 7.08,13.4 9.71,29.35 7.81,47.73 -0.88,10.77 -6.95,29.12 -17.99,55.2 z m -39.76,-437.29 -100.7,-28.88 c -19.41,-5.57 -31.3,-10.24 -35.59,-14.02 -4.34,-3.88 -7.22,-9.22 -8.51,-16.03 -1.23,-6.93 0.44,-18.56 5.16,-35.01 l -9.76,-2.81 -52.71,183.85 9.72,2.78 c 4.8,-16.62 9.55,-27.39 14.42,-32.44 4.77,-4.98 9.94,-8.02 15.59,-9.03 5.66,-0.9 18.11,1.38 37.54,6.94 l 233,66.82 c 19.43,5.57 31.3,10.26 35.67,14.04 4.39,3.91 7.14,9.2 8.4,16.11 1.38,6.84 -0.38,18.47 -5.1,34.93 l 9.85,2.82 47.82,-166.86 c 12.46,-43.45 18.5,-76.06 18.33,-97.92 -0.23,-21.81 -6.62,-41.43 -19.15,-58.81 -12.48,-17.27 -29.59,-29.12 -51.28,-35.35 -26.49,-7.58 -51.13,-4.3 -73.93,9.82 -14.43,9.06 -27.55,23.69 -39.24,44.02 l -96.82,-121.2 c -12.48,-15.79 -19.93,-26.64 -22.48,-32.44 -3.4,-8.91 -4.01,-18.09 -1.8,-27.81 l -9.77,-2.79 -32.41,113.05 130.51,162.63 z m 176.05,50.48 -157.25,-45.11 4.32,-15.07 c 7.02,-24.5 14.45,-42.23 22.47,-53.13 8.01,-10.92 18.89,-18.15 32.65,-21.75 13.74,-3.58 30.04,-2.73 48.91,2.69 27.41,7.85 45.69,20.04 55.14,36.63 9.44,16.51 10.06,38.97 1.86,67.46 z m 146.14,-550.18 -122.48,-22.54 -1.79,11.24 c 30.02,10.09 52.75,26.92 68.35,50.5 15.48,23.61 21.37,47.29 17.57,71.25 -2.93,18.47 -10.16,32.37 -21.82,41.55 -11.58,9.34 -23.84,12.9 -36.73,10.86 -8.12,-1.27 -15.13,-4.4 -20.84,-9.2 -7.71,-6.55 -14.84,-16.33 -21.26,-29.27 -4.67,-9.5 -12.15,-30.86 -22.51,-64.1 -14.42,-46.55 -29.87,-78.79 -46.34,-96.81 -16.47,-17.95 -36.85,-28.79 -61.16,-32.63 -30.85,-4.9 -59.31,2.96 -85.3,23.42 -26.02,20.53 -41.99,49.32 -47.85,86.28 -1.83,11.6 -2.39,22.86 -1.68,33.53 0.78,10.68 3.17,24.39 7.19,41.02 2.25,9.29 2.89,16.73 2.01,22.31 -0.79,4.74 -3.32,9.48 -7.78,14.09 -4.46,4.74 -10.7,8.12 -18.62,10.18 l -1.61,10.03 139.28,22.07 1.62,-10.02 c -37.95,-14.21 -65.35,-34.25 -82.3,-60.36 -17.02,-26.01 -23.44,-52.16 -19.31,-78.45 3.24,-20.34 11.38,-35.6 24.33,-45.92 12.96,-10.34 26.82,-14.32 41.47,-11.99 8.75,1.35 16.82,5.04 24.29,10.97 7.35,5.92 14.02,14.11 19.87,24.74 5.83,10.64 12.75,28.79 20.77,54.63 11.23,36.14 21.42,62.49 30.69,79 9.27,16.6 20.49,29.91 33.55,40.06 13.04,10.16 28.2,16.66 45.48,19.41 29.34,4.63 56.16,-2.27 80.27,-20.54 24.03,-18.35 38.65,-43.96 43.86,-76.73 1.91,-11.99 2.32,-23.81 1.23,-35.49 -0.87,-8.91 -3.24,-19.94 -7.23,-33.04 -3.93,-13.19 -5.51,-22.29 -4.75,-27.11 0.76,-4.75 2.82,-8.21 6.13,-10.46 3.31,-2.33 10.66,-3.73 22.09,-4.3 z m -338.45,-312.73 -10.12,-1.07 -20.42,194.24 10.11,1.05 1.3,-12.33 c 1.13,-10.76 4,-19.25 8.51,-25.4 3.03,-4.5 7.8,-7.68 14.34,-9.55 4.55,-1.62 16.12,-1.41 34.84,0.56 l 244.32,25.67 c 18.98,2 30.76,4.27 35.31,6.82 4.57,2.47 8.28,6.93 11.16,13.47 2.92,6.46 3.83,14.97 2.75,25.35 l -1.32,12.33 10.2,1.08 20.4,-194.24 -10.19,-1.05 -1.29,12.33 c -1.12,10.76 -3.94,19.27 -8.45,25.4 -3.11,4.49 -7.82,7.78 -14.33,9.84 -4.62,1.5 -16.24,1.32 -34.85,-0.64 l -244.32,-25.68 c -19.01,-2 -30.76,-4.27 -35.3,-6.83 -4.55,-2.64 -8.23,-7.2 -11.14,-13.66 -3.01,-6.55 -3.95,-14.95 -2.83,-25.34 z m 460.48,146.73 c 1.18,-11.12 -1.75,-21.08 -8.78,-29.74 -7.02,-8.7 -16.15,-13.62 -27.29,-14.79 -11.13,-1.17 -21.06,1.75 -29.77,8.78 -8.68,7.03 -13.6,16.15 -14.77,27.27 -1.16,11.14 1.76,21.09 8.79,29.77 7.01,8.7 16.17,13.62 27.27,14.79 11.15,1.15 21.08,-1.75 29.76,-8.8 8.7,-7.03 13.62,-16.15 14.79,-27.28 z m -79.09,-511.65 -101.16,-1.76 -0.18,9.86 c 23.33,6.34 39.95,13.11 49.98,20.42 10.1,7.35 18.01,17.34 23.81,29.96 3.27,7.01 4.66,19.26 4.34,36.65 l -0.47,27.84 -288.08,-5.03 c -19.06,-0.33 -30.98,-1.58 -35.74,-3.74 -4.74,-2.23 -8.84,-6.44 -12.27,-12.62 -3.58,-6.27 -5.22,-14.68 -5.04,-25.29 l 0.23,-12.4 -10.13,-0.18 -3.43,195.54 10.15,0.17 0.2,-12.4 c 0.2,-10.82 2.33,-19.53 6.3,-26.05 2.63,-4.74 7.09,-8.43 13.45,-11.03 4.36,-2.02 15.93,-2.84 34.74,-2.5 l 288.05,5.01 -0.46,27.1 c -0.43,25.07 -6.04,43.34 -16.94,54.51 -15.13,15.72 -36.56,25.41 -64.19,29.17 l -0.18,10.43 101.16,1.75 z m -29.33,-188.96 -151.95,5.31 -0.25,-7.43 c -0.82,-23.67 6.01,-41.01 20.47,-52.27 14.48,-11.13 36.23,-18.66 65.06,-22.68 l -0.35,-10.44 -195.46,6.82 0.38,10.43 c 21.39,1.52 38.94,5.53 52.81,12.07 13.89,6.68 23.27,14.56 28.31,23.76 4.94,9.15 7.73,22.72 8.37,40.44 l -105.18,3.7 c -20.55,0.7 -33.05,0.29 -37.76,-1.32 -4.66,-1.53 -8.54,-4.68 -11.6,-9.38 -3.18,-4.6 -4.86,-12.28 -5.22,-22.97 l -0.77,-22.28 c -1.23,-34.86 5.87,-63.05 21.3,-84.65 15.33,-21.61 39.44,-37.48 72.19,-47.87 l -0.35,-10.13 -118.1,20.87 11.28,322.67 10.14,-0.36 -0.44,-12.39 c -0.37,-10.82 1.29,-19.63 4.9,-26.34 2.39,-4.89 6.68,-8.68 12.89,-11.45 4.22,-2.21 15.73,-3.65 34.54,-4.32 l 245.55,-8.56 c 16.91,-0.59 27.25,-0.47 31.14,0.32 6.47,1.56 11.58,4.86 15.22,9.62 5.39,6.88 8.27,16.29 8.71,28.39 l 0.41,12.43 10.25,-0.38 -10.93,-312.45 -110.39,3.86 0.38,10.44 c 27.14,4.4 46.76,11.16 58.85,20.43 12.07,9.19 21.2,22.51 27.24,39.97 3.76,10.11 6.03,29.33 7.02,57.64 l 1.34,38.5"
         style="fill:#2e3192;fill-opacity:1;fill-rule:nonzero;stroke:none"
         id="path28" />
      <path
         d="m 4773.14,2824.94 -124.12,9.94 1.19,11.31 c 31.58,1.96 57.92,12.33 79.09,31.11 21.07,18.77 32.85,40.13 35.39,64.25 1.96,18.6 -1.46,33.9 -10.31,45.8 -8.75,12.01 -19.69,18.63 -32.68,19.96 -8.15,0.88 -15.75,-0.32 -22.51,-3.47 -9.16,-4.33 -18.55,-11.95 -28.1,-22.76 -7,-7.98 -19.74,-26.67 -38.35,-56.12 -25.96,-41.22 -49.23,-68.36 -69.81,-81.51 -20.55,-13.06 -43.06,-18.25 -67.55,-15.69 -31.03,3.27 -56.49,18.22 -76.31,44.69 -19.8,26.57 -27.78,58.51 -23.88,95.74 1.23,11.69 3.61,22.67 7.03,32.83 3.52,10.12 9.38,22.72 17.57,37.75 4.59,8.39 7.14,15.42 7.73,21.05 0.5,4.75 -0.76,9.99 -3.85,15.59 -3.09,5.72 -8.25,10.61 -15.39,14.67 l 1.08,10.12 140.24,-14.77 -1.05,-10.07 c -40.31,-3.88 -71.98,-16.19 -95.12,-37 -23.17,-20.72 -36.14,-44.3 -38.95,-70.79 -2.12,-20.49 1.78,-37.34 11.6,-50.65 9.87,-13.33 22.22,-20.76 37.01,-22.34 8.77,-0.92 17.54,0.52 26.26,4.35 8.64,3.82 17.2,10 25.59,18.73 8.4,8.79 19.8,24.5 34.19,47.38 20.22,32.01 36.87,54.84 50.12,68.4 13.27,13.64 27.52,23.59 42.77,29.98 15.25,6.45 31.53,8.82 48.95,7 29.56,-3.11 53.67,-16.72 72.2,-40.61 18.49,-23.95 26.02,-52.43 22.53,-85.46 -1.28,-12.07 -3.92,-23.61 -8,-34.61 -3.16,-8.37 -8.29,-18.43 -15.55,-30.06 -7.16,-11.72 -11.08,-20.08 -11.6,-24.94 -0.5,-4.79 0.61,-8.67 3.21,-11.7 2.62,-3.09 9.36,-6.38 20.25,-9.89 z m -426.89,-211 -9.92,2.09 40.57,191.04 9.95,-2.09 -2.59,-12.16 c -2.25,-10.58 -2.13,-19.54 0.26,-26.81 1.51,-5.21 5.04,-9.7 10.69,-13.49 3.79,-2.94 14.9,-6.32 33.3,-10.25 l 240.3,-51.08 c 18.69,-3.96 30.58,-5.42 35.72,-4.4 5.07,0.92 9.96,4.03 14.74,9.36 4.78,5.21 8.29,13.03 10.44,23.23 l 2.59,12.16 10,-2.13 -40.61,-191.04 -9.99,2.13 2.55,12.16 c 2.25,10.59 2.22,19.5 -0.17,26.76 -1.57,5.22 -5.02,9.79 -10.64,13.79 -3.87,2.83 -14.98,6.27 -33.29,10.13 l -240.34,51.08 c -18.64,3.97 -30.53,5.45 -35.64,4.44 -5.17,-1.11 -10.07,-4.32 -14.84,-9.54 -4.87,-5.33 -8.33,-13.02 -10.49,-23.23 z m 483.3,-2.77 c -2.32,-10.94 -8.18,-19.51 -17.54,-25.57 -9.39,-6.09 -19.6,-7.96 -30.53,-5.62 -10.95,2.29 -19.51,8.15 -25.58,17.54 -6.07,9.36 -7.97,19.56 -5.65,30.49 2.34,10.96 8.21,19.51 17.55,25.61 9.37,6.07 19.6,7.95 30.53,5.62 10.97,-2.33 19.5,-8.19 25.6,-17.55 6.09,-9.39 7.93,-19.57 5.62,-30.52"
         style="fill:#2e3192;fill-opacity:1;fill-rule:nonzero;stroke:none"
         id="path30" />
      <path
         d="m 879.508,3540.93 c 0,-625.82 145.262,-1284.06 473.052,-1821.97 215.66,-353.94 546.72,-703.61 961.12,-808.37 81.16,-20.52 164.64,-31.059 248.36,-31.059 83.75,0 167.22,10.539 248.41,31.059 414.37,104.79 745.42,454.43 961.08,808.37 327.77,537.91 473.03,1196.15 473.03,1821.97 0,625.83 -145.23,1284.06 -473.03,1821.95 -215.66,353.96 -546.71,703.62 -961.08,808.37 -81.19,20.53 -164.66,31.1 -248.41,31.1 -83.74,0 -167.2,-10.57 -248.39,-31.08 C 1899.26,6066.51 1568.22,5716.85 1352.56,5362.91 1024.79,4824.99 879.508,4166.76 879.508,3540.93 Z m -79.945,0 c 0,-640.5 149.292,-1313.15 484.707,-1863.56 227.28,-373.01 574.09,-734.14 1009.81,-844.288 87.61,-22.16 177.59,-33.523 267.96,-33.523 90.4,0 180.37,11.363 268,33.523 435.7,110.148 782.49,471.278 1009.77,844.288 335.42,550.41 484.7,1223.09 484.7,1863.56 0,640.48 -149.28,1313.15 -484.7,1863.57 -227.28,372.99 -574.1,734.13 -1009.77,844.27 -87.63,22.14 -177.63,33.53 -268,33.53 -90.4,0 -180.37,-11.39 -267.98,-33.51 -435.7,-110.15 -782.51,-471.3 -1009.79,-844.28 C 948.855,4854.08 799.563,4181.41 799.563,3540.93"
         style="fill:#2e3192;fill-opacity:1;fill-rule:evenodd;stroke:none"
         id="path32" />
      <path
         d="m 2662.56,5437.94 21.4,-21.34 c 0,0 -99.82,-152.85 -131.89,-195.52 -32.07,-42.64 -142.85,-319.89 -142.85,-319.89 l 21.66,-67.84 21.4,-21.33 c 0,0 -10.7,-46.21 -17.82,-35.55 -7.13,10.67 -46.62,60.43 -46.62,60.43 l -89.1,-270.17 32.06,-17.77 -10.68,-35.54 -35.64,-7.1 -21.38,-138.64 24.94,-10.66 -10.68,-42.65 h -35.65 l -32.07,-191.96 -10.7,-85.6 h 35.64 l 3.58,-35.56 -35.66,3.56 -7.11,-35.54 -24.96,-7.11 -14.27,39.09 -21.37,35.56 28.51,14.22 42.77,263.34 -60.59,21.31 -14.25,35.55 h 67.71 l 32.08,127.97 -85.54,74.65 14.27,31.99 53.45,-31.99 53.46,10.67 74.84,259.49 -114.03,-7.11 c 0,0 14.24,42.93 35.63,50.06 21.38,7.1 92.66,24.87 92.66,24.87 0,0 142.84,284.39 157.12,302.16 14.23,17.77 21.38,35.53 21.38,35.53 l -78.42,3.57 28.53,46.2 74.84,-3.55 z m -57.02,-974.28 46.32,-74.65 60.6,28.44 -81.96,-167.06 -49.91,-10.66 -28.52,28.41 z m -81.98,-266.6 -24.96,-135.38 57.03,-35.54 39.2,39.11 14.25,124.71 -39.19,35.53 z m 114.04,-35.55 32.08,32 46.34,-3.55 28.51,-85.31 -99.78,-167.37 -17.86,88.86 z m 174.62,199.05 64.17,-39.08 -85.54,-138.64 -49.87,56.89 h -57.02 l 64.14,167.05 14.24,17.78 z m -3.55,-248.81 h 42.76 l 14.29,-46.5 -67.72,-120.86 -57.02,-14.21 v 67.52 z m 117.63,167.07 -110.49,-135.08 74.82,14.22 7.15,-63.98 128.3,145.75 -24.95,31.97 z m 28.5,53.31 c 0,14.22 96.24,149.29 96.24,149.29 l 78.39,-24.88 3.59,-74.65 -39.21,-63.98 -67.73,-7.1 c 0,0 -71.28,7.1 -71.28,21.32 z m -153.25,149.29 106.94,167.08 71.27,-17.77 28.51,-78.2 -85.53,-177.75 -74.86,17.77 z m -85.53,252.4 99.79,7.1 28.52,-60.43 -96.23,-181.29 -71.29,-7.12 -28.5,56.88 z m 317.21,138.92 -110.49,-178.03 89.1,-7.1 32.06,-117.31 128.33,156.41 -89.12,42.65 z m -185.35,99.54 46.36,-67.55 h 114.03 l -128.33,-185.13 -32.06,81.75 -117.6,-17.77 z m 99.79,167.05 -78.39,-110.19 64.14,-81.77 103.36,17.77 46.33,60.45 3.55,113.74 z m -42.77,170.63 39.21,35.54 14.25,-95.98 39.21,28.44 3.56,-31.98 -21.37,-35.56 -7.13,-35.53 124.72,3.55 28.52,-3.55 24.96,-28.44 -32.06,-10.67 3.54,-99.53 -35.65,-67.55 7.15,-39.1 -17.85,-46.19 32.1,-85.61 78.42,-21.33 50.18,10.67 7.1,-31.99 -35.62,-56.87 -117.89,-142.2 -10.7,-49.76 71.28,-7.12 17.81,-92.42 78.71,74.64 24.93,-21.33 -100.05,-110.17 -92.68,-99.53 -231.67,-281.12 -99.78,-195.51 h 46.3 l 139.02,110.19 46.34,60.44 53.47,24.88 -28.51,-46.21 -139,-142.2 -99.81,-60.42 -10.69,17.78 -49.9,-35.56 v 35.56 l 46.32,127.96 -46.32,53.33 -74.82,-149.31 -35.67,17.78 7.15,99.52 -42.77,-31.98 -21.4,28.43 -32.06,-71.08 -35.65,71.08 -3.56,-131.51 -60.89,39.1 -42.77,21.33 v 21.33 l 60.9,3.55 39.21,241.72 -103.66,-46.22 3.55,28.43 100.11,82.06 10.68,56.88 -60.88,106.64 14.54,24.87 67.72,-53.31 71.28,241.7 -114.05,-3.55 -3.57,28.44 146.12,31.99 60.58,152.87 -35.62,78.2 -39.2,35.54 35.61,28.73 28.55,-21.62 32.06,-60.44 135.41,199.36 -96.2,7.09 -28.53,3.57 28.53,42.66 117.59,3.56 78.42,110.18 z M 2251.47,3999.85 c -9.36,-115.28 6.8,-104.75 -27.09,-101.37 -33.89,3.39 -88.09,0 -91.48,57.44 -3.39,57.47 -44.05,467.9 0,646.99 44.06,179.11 309.87,719.78 475.91,907.18 0,0 94.82,111.51 94.82,57.42 0,-54.05 6.79,-97.97 47.46,-148.66 40.64,-50.69 54.2,-60.84 27.08,-111.52 -27.08,-50.69 -320.02,-498.28 -370.82,-603.03 -50.83,-104.77 -118.59,-246.7 -155.88,-704.45 z m 181.13,-334.53 c 0,0 -103.19,59.27 -103.19,253.44 0,194.15 11.71,560.96 174.35,839.59 162.61,278.64 416.74,623.32 501.43,701.04 84.71,77.72 118.59,70.97 108.4,13.52 -10.14,-57.45 -30.46,-243.31 3.42,-273.71 33.88,-30.43 72.68,-43.94 89.61,-114.91 16.94,-70.95 -38.8,-94.61 -25.25,-145.29 13.56,-50.69 79.47,-113.06 82.87,-160.38 3.37,-47.3 -13.57,-148.68 6.78,-199.38 20.33,-50.68 77.92,-165.57 67.75,-236.53 -10.18,-70.96 12.01,-173.87 -347.15,-494.92 C 2632.5,3526.78 2432.6,3665.32 2432.6,3665.32 Z m 223.6,-427.33 c 0,0 33.91,40.59 33.91,13.54 0,-27.02 -6.8,-196 -6.8,-233.18 0,-37.15 10.17,-87.86 27.11,-128.4 16.93,-40.55 54.2,-209.52 64.37,-273.71 10.17,-64.22 60.99,-346.25 60.99,-407.06 0,-60.83 44.04,-121.64 27.11,-128.4 -16.94,-6.77 -47.42,16.9 -54.22,54.07 -6.77,37.16 -44.05,329.32 -57.58,403.67 -13.55,74.34 -37.28,212.86 -81.32,364.95 -44.06,152.06 -16.95,287.22 -16.95,287.22 z m -132.13,30.41 c 0,0 50.83,13.52 33.9,-20.27 -16.94,-33.78 -54.21,-185.86 -61.01,-202.73 -6.76,-16.89 33.89,-104.79 50.85,-165.6 16.94,-60.81 125.35,-450.98 132.12,-670.62 0,0 16.95,-141.94 33.88,-158.81 16.93,-16.92 -27.11,-37.17 -33.88,-13.53 -6.77,23.63 -40.67,236.56 -47.43,307.5 -6.79,70.95 -60.99,373.26 -105.03,494.9 -44.05,121.67 -71.15,172.37 -67.76,223.03 3.4,50.69 64.36,206.13 64.36,206.13 z m -682.56,92.79 c -13.54,3.39 -71.14,-55.59 -84.67,-69.11 -13.57,-13.5 -67.79,-70.97 -74.55,-91.25 -6.78,-20.27 -3.41,-94.62 -6.78,-145.3 -3.4,-50.69 -33.89,-270.33 -27.11,-287.23 6.78,-16.92 23.71,-37.17 23.71,3.37 0,40.55 13.55,185.84 23.72,246.68 10.19,60.83 6.79,165.6 23.72,192.62 16.94,27.02 74.54,82.64 98.27,99.52 23.69,16.91 37.26,47.33 23.69,50.7 z m 128.76,-16.91 c 0,0 47.43,15.08 27.11,-16.88 -20.34,-31.95 -108.42,-133.31 -108.42,-133.31 0,0 -30.51,-37.19 -23.74,-121.67 6.79,-84.47 -20.31,-402.13 -37.25,-402.13 -16.93,0 -20.32,13.52 -20.32,57.45 0,43.93 33.86,364.96 33.86,408.89 0,43.93 6.8,70.96 40.67,104.75 33.87,33.79 88.09,102.9 88.09,102.9 z m 196.5,-82.62 c -23.7,-10.13 -67.75,-67.57 -71.14,-87.86 -3.39,-20.29 16.94,-114.89 44.03,-209.52 27.11,-94.6 57.63,-270.33 57.63,-270.33 0,0 37.25,-33.82 30.48,13.51 -6.78,47.3 -94.87,405.5 -94.87,432.55 0,27.03 -6.77,55.89 57.59,114.89 0,0 0,16.91 -23.72,6.76 z m 182.99,23.65 c -20.35,6.77 -94.88,-118.27 -98.29,-135.18 -3.37,-16.87 74.56,-415.62 81.32,-452.82 6.79,-37.18 33.89,-33.78 27.12,13.52 -6.79,47.32 -71.15,392.01 -71.15,412.28 0,20.28 16.93,77.72 57.59,118.27 40.66,40.54 23.72,37.2 3.41,43.93 z m 877.21,-1065.98 c 0,0 -3.41,50.66 37.27,60.81 40.65,10.14 135.51,33.79 162.64,54.08 27.1,20.26 71.15,0 50.81,-40.57 -20.33,-40.56 -61,-114.88 -135.53,-118.24 -74.55,-3.4 -115.19,43.92 -115.19,43.92 z m -157.43,229.78 c 0,0 -16.93,57.43 20.36,57.43 37.26,0 303.1,52.23 343.72,96.18 40.68,43.93 84.72,43.93 88.12,-3.39 3.37,-47.31 1.53,-123.2 -169.42,-194.15 -170.95,-70.96 -282.78,43.93 -282.78,43.93 z m -155.84,275.25 c -16.94,-54.07 -16.94,-54.07 44.04,-98.01 60.99,-43.93 120.15,-47.28 245.49,-13.49 125.36,33.79 311.71,158.81 348.99,243.3 37.29,84.45 -6.77,141.91 -27.11,155.45 -20.32,13.48 -67.75,40.53 -132.11,-30.41 -64.41,-70.99 -275.99,-189.26 -414.89,-192.65 0,0 -47.48,-10.12 -64.41,-64.19 z m -74.55,334.55 c -40.62,0 -71.12,-23.67 -54.19,-98 16.94,-74.34 118.59,-111.51 213.46,-87.88 94.86,23.67 333.59,125.04 391.16,226.44 57.61,101.36 37.3,214.41 -3.38,261.72 -40.63,47.32 -106.87,15.38 -159.23,-72.5 -52.35,-87.86 -347.15,-229.78 -387.82,-229.78 z m -101.61,243.31 c 0,0 118.58,119.81 162.62,177.24 44.04,57.46 111.82,172.35 189.74,145.31 77.92,-27.04 152.47,-74.33 105.03,-185.86 -47.46,-111.51 -271.06,-261.73 -355.78,-282.01 -84.67,-20.27 -105,0 -101.61,40.56 3.38,40.53 0,104.76 0,104.76 z m -736.77,146.85 c 0,0 81.31,94.61 108.41,84.46 27.11,-10.14 13.56,-60.84 -6.77,-84.46 -20.33,-23.66 -33.88,-74.35 40.66,-74.35 74.53,0 208.51,54.04 257.5,101.37 48.97,47.3 76.08,6.76 55.75,-30.42 -20.32,-37.16 0,-104.74 115.19,-94.62 115.19,10.14 250.71,121.64 250.71,182.48 0,60.83 -10.15,87.86 -10.15,87.86 0,0 -154.3,-91.23 -372.69,-50.69 -218.39,40.56 -184.5,185.87 -184.5,209.53 v 54.05 c 0,0 -128.75,-3.4 -172.8,-60.81 -44.06,-57.45 -152.45,-236.55 -132.13,-294.01 20.32,-57.43 50.82,-30.39 50.82,-30.39 z m 20.31,378.45 44.05,37.18 c 0,0 -60.98,454.35 -13.54,714.54 47.43,260.22 330.19,797.22 601.23,1081.07 0,0 94.87,52.53 98.27,-18.44 3.39,-70.96 47.44,-175.72 77.92,-202.75 30.5,-27.03 44.05,-23.66 67.75,10.14 23.74,33.77 167.86,189.23 240.56,131.78 72.71,-57.44 42.22,-263.58 72.71,-331.17 30.5,-67.58 91.48,-148.67 81.32,-192.6 -10.18,-43.93 -57.62,-86.32 -10.18,-152.07 47.42,-65.74 81.33,-146.85 71.15,-217.8 -10.16,-70.98 16.95,-179.11 54.22,-246.68 37.27,-67.6 3.4,-258.67 -77.95,-344.69 -81.3,-86.04 -401.32,-410.44 -401.32,-410.44 0,0 218.37,67.59 286.15,-3.37 67.75,-70.96 44.05,-138.54 121.97,-165.58 77.92,-27.04 220.24,-86.03 213.46,-258.35 -6.8,-172.36 10.16,-152.08 54.19,-179.11 44.04,-27.04 130.43,-166.97 23.73,-280.47 -50.84,-54.06 33.87,-121.66 33.87,-121.66 0,0 47.43,-75.88 -44.05,-170.51 -91.48,-94.59 -20.32,-138.54 -20.32,-162.2 0,-23.64 27.12,-179.08 -169.39,-246.66 -196.52,-67.6 -296.32,57.42 -306.49,81.09 -10.18,23.66 -6.8,94.63 -60.99,114.88 -54.21,20.28 -105.02,89.72 -121.97,168.96 -16.93,79.25 -74.54,106.29 -74.54,106.29 l -33.88,10.17 c 0,0 40.68,-177.28 40.68,-309.08 0,-131.76 33.86,-202.75 74.51,-243.31 40.65,-40.53 152.47,-152.06 118.59,-179.08 -33.87,-27.02 -84.68,-27.02 -118.59,20.28 -33.88,47.3 -94.86,162.2 -118.57,182.49 -23.73,20.26 -44.04,57.43 -47.46,118.27 -3.38,60.81 -60.98,478.01 -91.47,572.63 -30.5,94.6 -77.89,229.78 -77.89,280.44 v 158.85 c 0,0 -16.97,47.29 -50.84,-16.89 -33.9,-64.2 -10.16,-185.85 10.16,-239.94 20.32,-54.05 94.87,-298.89 115.18,-427.3 20.32,-128.43 33.88,-354.84 47.43,-395.4 13.56,-40.56 64.37,-87.83 81.33,-101.37 16.94,-13.51 71.14,-74.33 40.64,-94.62 -30.49,-20.26 -111.79,47.32 -142.29,64.23 -30.49,16.88 -74.53,81.1 -81.3,145.3 -6.8,64.2 -57.61,444.2 -91.5,576.01 -33.86,131.79 -100.08,277.08 -111.79,307.49 -11.73,30.44 6.77,74.35 16.94,104.77 10.15,30.42 50.82,165.56 50.82,165.56 0,0 6.78,31.98 -20.33,42.09 -27.11,10.16 -52.36,-4.89 -86.25,-55.59 -33.89,-50.7 -74.55,-125.02 -74.55,-152.06 0,-27.05 81.31,-381.87 84.7,-425.79 3.41,-43.94 13.57,-70.96 -16.93,-67.58 -30.47,3.39 -67.77,-3.38 -74.54,60.82 -6.77,64.22 -64.39,358.22 -74.53,395.39 -10.17,37.16 -37.26,87.83 0,121.65 37.27,33.78 64.36,84.48 64.36,84.48 0,0 -20.32,23.64 -33.87,16.88 -13.55,-6.77 -77.92,-77.72 -94.88,-98 -16.94,-20.28 -13.53,-54.06 3.4,-108.14 16.95,-54.04 71.13,-283.84 81.3,-354.81 10.18,-70.95 27.11,-97.97 3.41,-97.97 -23.72,0 -71.15,-16.91 -88.11,74.31 -16.94,91.24 -71.14,334.55 -88.07,371.71 -16.94,37.17 -54.22,87.88 -30.49,111.54 l 71.14,70.96 c 0,0 -3.39,40.54 -23.72,37.16 -20.33,-3.37 -60.98,6.77 -60.98,6.77 0,0 -64.38,-57.46 -84.7,-91.25 -20.32,-33.79 -40.66,-37.17 -40.66,-101.37 0,-64.2 -20.33,-331.17 -33.89,-378.47 -13.55,-47.32 -3.39,-135.18 -20.32,-128.41 -16.94,6.75 -77.92,20.25 -84.71,67.57 -6.77,47.31 23.72,179.11 23.72,250.07 0,70.94 6.77,239.92 6.77,239.92 0,0 13.55,50.69 37.28,70.97 23.71,20.28 77.91,86.01 77.91,86.01 0,0 23.73,20.28 3.41,33.79 -20.34,13.53 -40.67,-18.43 -74.55,-52.22 -33.87,-33.79 -98.26,-111.5 -105.03,-165.57 -6.78,-54.08 -23.72,-307.5 -27.11,-351.46 -3.39,-43.91 13.55,-64.2 -3.39,-81.11 -16.93,-16.88 -65.91,0 -82.85,23.67 -16.94,23.65 8.3,135.19 15.09,202.76 6.78,67.6 13.56,270.34 13.56,270.34 0,0 3.39,20.28 37.27,60.83 33.87,40.54 162.63,156.99 162.63,156.99 v 64.18 z m -418.28,33.79 c 0,0 79.49,141.93 198.06,108.15 118.6,-33.79 152.46,-162.2 128.77,-233.17 -23.73,-70.97 -89.35,-182.35 -203.31,-175.72 -231.93,13.5 -123.52,300.74 -123.52,300.74 z m 167.57,37.17 c 0,0 108.42,6.78 108.42,-104.74 0,-111.52 -94.86,-118.29 -111.8,-118.29 -16.94,0 -115.22,13.53 -105.05,114.9 10.17,101.39 108.43,108.13 108.43,108.13 z m -187.88,-334.53 c 0,0 -94.88,118.27 -30.52,270.33 64.39,152.07 201.46,192.61 286.17,162.21 84.7,-30.43 195.83,-188.81 91.49,-354.83 -125.37,-199.36 -347.14,-77.71 -347.14,-77.71 z m -74.55,381.85 c 0,0 -47.45,37.16 -23.72,57.44 23.72,20.28 81.33,37.18 77.92,-3.39 -3.37,-40.53 0,-54.05 0,-54.05 z m 513.14,-94.63 c 30.51,-97.99 -23.7,-327.78 -281.2,-429.14 -247.71,-97.53 -228.55,81.09 -248.87,145.3 -20.34,64.2 -40.68,206.14 -6.79,277.1 l 3.39,30.4 -50.81,43.93 -125.37,-104.75 -23.72,20.27 105.04,118.28 -30.5,30.4 -172.78,-172.34 -20.33,27.03 c 0,0 138.9,155.47 159.22,185.87 20.33,30.42 64.39,57.46 71.16,27.03 6.78,-30.4 37.28,-30.4 57.61,-10.13 20.31,20.27 64.36,86.02 81.31,96.16 16.94,10.13 47.42,15.04 50.81,-43.93 3.38,-58.99 28.65,-79.26 48.99,-69.13 20.33,10.14 145.69,94.62 230.39,33.79 84.69,-60.82 121.99,-108.14 152.45,-206.14"
         style="fill:#d4ad48;fill-opacity:1;fill-rule:evenodd;stroke:none"
         id="path34" />
    </g>
  </g>
</svg>
