<?xml version="1.0" encoding="UTF-8" standalone="no"?>
<svg
   xmlns:dc="http://purl.org/dc/elements/1.1/"
   xmlns:cc="http://creativecommons.org/ns#"
   xmlns:rdf="http://www.w3.org/1999/02/22-rdf-syntax-ns#"
   xmlns:svg="http://www.w3.org/2000/svg"
   xmlns="http://www.w3.org/2000/svg"
   xmlns:sodipodi="http://sodipodi.sourceforge.net/DTD/sodipodi-0.dtd"
   xmlns:inkscape="http://www.inkscape.org/namespaces/inkscape"
   width="621.71466"
   height="621.71466"
   viewBox="0 0 47.935692 47.935692"
   version="1.1"
   id="svg30"
   sodipodi:docname="mcgill.svg"
   inkscape:version="0.92.5 (2060ec1f9f, 2020-04-08)">
  <metadata
     id="metadata36">
    <rdf:RDF>
      <cc:Work
         rdf:about="">
        <dc:format>image/svg+xml</dc:format>
        <dc:type
           rdf:resource="http://purl.org/dc/dcmitype/StillImage" />
        <dc:title />
      </cc:Work>
    </rdf:RDF>
  </metadata>
  <defs
     id="defs34">
    <clipPath
       clipPathUnits="userSpaceOnUse"
       id="clipPath845">
      <rect
         style="fill:#ffac33;fill-opacity:0;stroke:#000000;stroke-width:0.08496685;stroke-miterlimit:4;stroke-dasharray:none;stroke-opacity:1"
         id="rect847"
         width="47.935692"
         height="47.935692"
         x="4.042769"
         y="72.267036" />
    </clipPath>
  </defs>
  <sodipodi:namedview
     pagecolor="#ffffff"
     bordercolor="#666666"
     borderopacity="1"
     objecttolerance="10"
     gridtolerance="10"
     guidetolerance="10"
     inkscape:pageopacity="0"
     inkscape:pageshadow="2"
     inkscape:window-width="3280"
     inkscape:window-height="1798"
     id="namedview32"
     showgrid="false"
     fit-margin-top="0"
     fit-margin-left="0"
     fit-margin-right="0"
     fit-margin-bottom="0"
     inkscape:zoom="2.1360282"
     inkscape:cx="131.47157"
     inkscape:cy="331.69855"
     inkscape:window-x="144"
     inkscape:window-y="54"
     inkscape:window-maximized="1"
     inkscape:current-layer="g28" />
  <g
     id="g28"
     clip-path="url(#clipPath845)"
     style="clip-rule:evenodd;fill-rule:evenodd"
     transform="translate(-4.042769,-72.267036)">
    <path
       d="M 0,0 H 192.756 V 192.756 H 0 Z"
       id="path2"
       inkscape:connector-curvature="0"
       style="fill:#ffffff;fill-opacity:0" />
    <path
       d="m 61.613,111.32 c 0,-0.936 0.884,-0.572 0.884,-0.936 0,-0.156 -0.364,-0.104 -0.416,-0.104 -0.416,0 -0.832,0.053 -1.247,0.053 -0.364,0 -0.676,-0.053 -1.04,-0.053 -0.052,0 -0.26,0 -0.26,0.104 0,0.416 1.04,0.104 1.04,0.885 v 4.416 c 0,2.027 0.675,4.002 4.105,4.002 3.847,0 3.69,-3.273 3.69,-3.896 v -4.107 c 0,-1.195 0.779,-0.936 0.779,-1.299 0,-0.051 -0.104,-0.104 -0.155,-0.104 -0.26,0 -0.521,0.053 -0.728,0.053 -0.52,0 -1.04,-0.053 -1.559,-0.053 -0.052,0 -0.156,0.053 -0.156,0.104 0,0.52 1.248,-0.051 1.248,1.299 v 4.262 c 0,1.561 -0.572,3.172 -3.015,3.172 -1.819,0 -3.17,-0.936 -3.17,-3.066 z m 14.449,6.393 c 0,1.82 -1.144,1.248 -1.144,1.715 0,0.053 0,0.156 0.156,0.156 0.104,0 0.78,-0.051 1.248,-0.051 0.624,0 1.039,0.051 1.352,0.051 0.104,0 0.104,-0.104 0.104,-0.207 0,-0.312 -1.144,0.104 -1.144,-1.039 v -5.406 c 0,-0.26 0.052,-0.312 0.104,-0.312 0.104,0 0.26,0.26 0.26,0.26 l 5.665,6.395 c 0.26,0.311 0.416,0.363 0.52,0.363 0.104,0 0.104,-0.209 0.104,-0.572 v -7.641 c 0,-0.936 0.78,-0.727 0.78,-1.039 0,-0.104 -0.052,-0.104 -0.156,-0.104 -0.312,0 -0.883,0.053 -1.299,0.053 -0.416,0 -0.832,-0.053 -1.195,-0.053 -0.104,0 -0.156,0 -0.156,0.104 0,0.416 1.455,-0.051 1.455,1.664 v 5.508 c 0,0.105 0,0.156 -0.052,0.156 l -0.156,-0.156 -6.289,-7.016 c -0.052,-0.053 -0.156,-0.26 -0.312,-0.26 -0.208,0 -0.416,0.053 -0.624,0.053 -0.208,0 -0.415,-0.053 -0.623,-0.053 -0.052,0 -0.156,0.053 -0.156,0.104 0,0.469 1.56,-0.26 1.56,2.443 v 4.884 z m 15.28,0.416 c 0,1.299 -1.04,0.883 -1.04,1.248 0,0.104 0.053,0.207 0.312,0.207 0.156,0 0.416,-0.051 1.248,-0.051 0.572,0 1.144,0.051 1.403,0.051 0.259,0 0.312,-0.051 0.312,-0.156 0,-0.363 -1.195,-0.104 -1.195,-0.986 v -7.068 c 0,-0.988 0.936,-0.676 0.936,-0.988 0,-0.104 -0.052,-0.104 -0.26,-0.104 -0.364,0 -0.779,0.053 -1.195,0.053 -0.468,0 -0.987,-0.053 -1.455,-0.053 -0.104,0 -0.104,0 -0.104,0.104 0,0.312 1.04,0.053 1.04,0.988 v 6.755 z m 12.058,0.832 c 0.104,0.26 0.26,0.832 0.467,0.832 0.209,0 0.312,-0.469 0.469,-0.781 l 3.273,-7.742 c 0.365,-0.885 0.729,-0.572 0.729,-0.832 0,-0.104 -0.104,-0.156 -0.209,-0.156 -0.207,0 -0.416,0.053 -1.039,0.053 -0.26,0 -0.572,-0.053 -0.883,-0.053 -0.104,0 -0.156,0 -0.156,0.156 0,0.311 0.832,0.051 0.832,0.623 0.051,0.312 -0.104,0.729 -0.209,0.936 l -2.287,5.613 c -0.051,0.156 -0.104,0.363 -0.207,0.363 -0.156,0 -0.26,-0.26 -0.52,-0.986 l -2.34,-5.406 a 1.318,1.318 0 0 1 -0.104,-0.52 c 0,-0.467 0.572,-0.467 0.52,-0.676 0,-0.051 -0.104,-0.104 -0.154,-0.104 -0.209,0 -0.676,0.053 -1.041,0.053 -0.416,0 -0.832,-0.053 -1.195,-0.053 -0.156,0 -0.207,0.053 -0.207,0.156 0,0.311 0.676,0.051 1.039,0.832 z m 12.473,-7.328 c 0,-0.885 -0.051,-0.832 1.248,-0.832 0.52,0 1.871,-0.053 2.234,0.363 0.209,0.312 0,0.936 0.312,0.936 0.053,0 0.26,-0.104 0.26,-1.559 0,-0.156 -0.053,-0.26 -0.156,-0.26 -0.363,0 -1.611,0.053 -1.871,0.053 -0.52,0 -1.246,-0.053 -3.689,-0.053 -0.416,0 -0.469,0.053 -0.469,0.156 0,0.156 0.26,0.156 0.365,0.207 0.727,0.104 0.727,0.729 0.727,1.299 v 6.029 c 0,0.572 -0.051,0.988 -0.363,1.145 -0.416,0.207 -0.572,0.156 -0.572,0.311 0,0.105 0.053,0.156 0.209,0.156 0.52,0 1.039,-0.051 1.559,-0.051 1.039,-0.053 2.027,0.051 3.014,0.051 0.572,0 0.885,0 1.301,-0.467 0.311,-0.312 0.676,-0.779 0.676,-1.248 0,-0.053 -0.053,-0.156 -0.105,-0.156 -0.207,0 -0.623,1.352 -3.689,1.352 -1.092,0 -0.988,-0.312 -0.988,-1.092 v -2.441 c 0,-0.209 -0.051,-0.416 0.26,-0.416 h 1.924 c 1.092,0 0.676,1.143 1.039,1.143 0.104,0 0.156,-0.053 0.156,-0.156 v -1.039 -1.352 c 0,-0.104 -0.053,-0.207 -0.156,-0.207 -0.311,0 0.053,1.039 -1.299,1.039 h -1.404 c -0.57,0 -0.52,0 -0.52,-0.469 v -2.442 z m 14.762,3.17 c 0.936,-0.363 1.662,-1.248 1.662,-2.287 0,-2.547 -2.91,-2.234 -3.117,-2.234 -0.676,0 -1.455,0.053 -2.184,0.053 -0.676,0 -0.623,-0.053 -0.832,-0.053 -0.156,0 -0.26,0.053 -0.26,0.156 0,0.416 1.092,-0.104 1.092,1.143 v 6.705 c 0,0.988 -0.936,0.832 -0.936,1.143 0,0.053 0.053,0.156 0.104,0.156 0.52,0 1.041,-0.051 1.508,-0.051 1.092,0 1.402,0.051 1.508,0.051 0.104,0 0.26,0 0.26,-0.104 0,-0.469 -1.404,-0.053 -1.404,-1.195 v -2.754 c 0,-0.156 -0.051,-0.365 0.365,-0.365 1.455,0 1.246,-0.051 1.766,0.676 l 1.455,2.287 c 0.469,0.779 0.988,1.455 1.977,1.455 0.104,0 0.83,0 0.83,-0.156 0,-0.311 -0.623,0.156 -1.609,-1.299 z m -2.6,-3.639 c 0,-0.52 0.312,-0.467 0.779,-0.467 1.301,0 2.496,0.52 2.496,2.131 0,1.662 -1.248,1.871 -1.82,1.871 -0.623,0 -1.455,0.051 -1.455,-0.156 z m 12.162,7.797 c 0.053,0.207 1.248,0.727 2.234,0.727 2.963,0 3.742,-1.662 3.742,-2.807 0,-3.586 -5.301,-2.182 -5.301,-4.625 0,-1.248 1.092,-1.715 2.131,-1.715 1.145,0 2.131,0.572 2.496,1.715 0.051,0.104 0.154,0.363 0.258,0.363 0.156,0 0.156,-0.051 0.156,-0.154 l -0.207,-1.82 c 0,-0.156 -0.053,-0.156 -0.156,-0.156 -0.103,0 -0.156,0.105 -0.26,0.105 -0.156,0 -0.623,-0.469 -2.184,-0.469 -1.559,0 -2.961,0.832 -2.961,2.494 0,3.432 5.354,2.027 5.354,4.523 0,1.402 -1.197,2.078 -2.443,2.078 -1.82,0 -2.65,-1.352 -2.807,-1.975 -0.053,-0.26 -0.053,-0.416 -0.209,-0.416 -0.154,0 -0.207,0.156 -0.154,0.416 z m 13.098,-0.832 c 0,1.299 -1.039,0.883 -1.039,1.248 0,0.104 0.053,0.207 0.26,0.207 0.207,0 0.467,-0.051 1.299,-0.051 0.52,0 1.092,0.051 1.404,0.051 0.207,0 0.26,-0.051 0.26,-0.156 0,-0.363 -1.145,-0.104 -1.145,-0.986 v -7.068 c 0,-0.988 0.936,-0.676 0.936,-0.988 0,-0.104 -0.051,-0.104 -0.26,-0.104 -0.416,0 -0.832,0.053 -1.195,0.053 -0.52,0 -0.986,-0.053 -1.455,-0.053 -0.104,0 -0.156,0 -0.156,0.104 0,0.312 1.039,0.053 1.092,0.988 v 6.755 z m 11.539,0.312 c 0,0.779 -1.041,0.623 -1.041,0.936 0,0.156 0,0.207 0.156,0.207 0.053,0 0.312,-0.051 1.768,-0.051 0.416,0 0.779,0.051 1.092,0.051 0.104,0 0.104,-0.156 0.104,-0.156 0,-0.416 -1.039,0 -1.039,-1.09 v -6.705 c 0,-0.729 -0.104,-0.676 0.52,-0.676 h 1.871 c 1.352,0 0.623,1.039 1.092,1.039 0.207,0 0.156,-0.156 0.156,-0.312 l -0.053,-1.039 c 0,-0.311 -0.104,-0.363 -0.363,-0.363 -0.259,0 -1.508,0.053 -3.898,0.053 -1.664,0 -2.703,-0.053 -3.689,-0.053 -0.262,0 -0.262,0.312 -0.262,0.467 l -0.154,1.301 c 0,0.051 0.051,0.154 0.154,0.154 0.156,0 0.156,-0.154 0.209,-0.311 0.26,-0.729 0.26,-0.936 1.092,-0.936 h 2.131 c 0.207,0.051 0.156,0.52 0.156,0.623 v 6.861 z m 13.148,-3.845 c 0.104,0.154 0.26,0.414 0.26,0.676 v 3.17 c 0,0.936 -0.986,0.623 -0.986,0.986 0,0.156 0.051,0.156 0.207,0.156 0.104,0 0.572,-0.051 1.195,-0.051 0.469,0 1.248,0.051 1.404,0.051 0.207,0 0.311,0 0.311,-0.156 0,-0.416 -1.092,-0.051 -1.092,-1.195 v -3.223 c 0,-0.154 0.105,-0.26 0.365,-0.57 l 1.818,-2.859 c 0.209,-0.311 0.363,-0.727 0.729,-0.936 0.104,-0.051 0.311,-0.104 0.311,-0.207 0,-0.103 -0.051,-0.156 -0.154,-0.156 -0.365,0 -0.729,0.053 -1.145,0.053 -0.312,0 -0.623,-0.053 -0.936,-0.053 -0.156,0 -0.26,0 -0.26,0.156 0,0.311 0.986,0.051 0.986,0.727 0,0.312 -0.207,0.572 -0.311,0.676 l -1.352,2.234 c -0.104,0.156 -0.156,0.262 -0.26,0.262 -0.053,0 -0.156,-0.105 -0.26,-0.262 l -1.559,-2.545 c -0.105,-0.105 -0.262,-0.312 -0.262,-0.521 0,-0.363 0.625,-0.414 0.625,-0.623 0,-0.104 -0.156,-0.104 -0.26,-0.104 -0.104,0 -0.469,0.053 -0.885,0.053 -0.936,0 -1.143,-0.053 -1.506,-0.053 -0.104,0 -0.209,0.104 -0.209,0.156 0,0.26 0.676,0.104 0.988,0.623 z m -24.74,-39.605 c 1.301,0 2.393,1.091 2.393,2.391 0,1.352 -1.092,2.443 -2.393,2.443 -1.35,0 -2.391,-1.091 -2.391,-2.443 a 2.386,2.386 0 0 1 2.391,-2.391 z m 22.869,25.622 c -0.104,1.041 -0.623,1.715 -2.598,2.287 -1.561,0.52 -1.352,1.352 0.207,1.404 4.262,-0.625 5.613,-0.52 9.459,-0.105 1.508,0 1.248,-0.986 0.312,-1.402 -2.234,-0.883 -2.6,-0.883 -3.066,-3.119 l -0.156,-22.452 c 0,-1.299 0.469,-2.807 -0.883,-2.443 -2.547,0.987 -2.756,1.092 -5.094,1.923 -1.248,0.52 -0.779,1.091 0.104,1.403 1.248,0.52 1.352,1.248 1.455,2.183 z m -13.148,-0.154 c -0.105,1.09 -0.625,1.766 -2.6,2.338 -1.559,0.469 -1.402,1.299 0.209,1.402 4.262,-0.623 5.613,-0.52 9.459,-0.104 1.455,-0.051 1.246,-0.986 0.311,-1.455 -2.285,-0.883 -2.598,-0.883 -3.066,-3.119 l -0.156,-22.4 c 0,-1.299 0.469,-2.807 -0.883,-2.495 -2.598,1.04 -2.807,1.143 -5.094,1.923 -1.246,0.52 -0.779,1.143 0.104,1.403 1.248,0.52 1.352,1.299 1.404,2.183 z m -12.006,-8.836 c -0.105,-1.144 -0.26,-2.027 -1.561,-2.391 -0.936,-0.104 -1.402,-0.936 -0.051,-1.456 2.65,-0.832 3.014,-0.988 5.092,-2.651 0.625,-0.364 1.352,-0.052 0.988,1.092 -0.104,0.832 -0.104,1.247 -0.156,2.183 v 11.694 c 0.105,1.924 1.611,2.234 2.547,2.6 0.936,0.363 1.039,1.506 -0.104,1.506 -4.105,-0.57 -5.041,-0.623 -9.043,0.209 -1.352,0 -1.611,-1.039 0.051,-1.611 1.611,-0.572 2.184,-0.883 2.236,-2.287 v -8.888 z m -36.746,-2.132 c 0.936,-9.979 7.328,-14.137 16.32,-14.864 9.51,0.052 10.861,0.675 10.705,5.977 0.053,1.923 -1.195,2.339 -2.078,0.208 -1.039,-1.975 -1.871,-3.118 -4.262,-4.105 -8.213,-1.819 -14.24,3.43 -14.605,12.37 -0.57,12.579 13.514,16.268 16.424,11.538 0.625,-1.195 0.625,-4.469 0.572,-7.172 -0.52,-1.767 -2.234,-1.559 -3.846,-1.663 -1.82,0.156 -2.443,-1.871 -0.053,-1.871 2.34,0 6.758,0.26 12.475,-0.312 1.715,0.104 1.818,1.611 -0.26,1.871 -0.885,0.156 -2.756,0.156 -3.016,1.611 -0.207,7.692 1.561,8.42 -4.209,10.499 -7.381,1.715 -15.332,0.936 -19.803,-3.379 -2.026,-1.82 -4.52,-5.874 -4.364,-10.708 z m -19.023,5.094 c 0.832,-8.264 7.693,-10.239 11.226,-10.239 4.211,0.104 5.562,1.508 5.613,2.911 0,1.403 -0.986,2.131 -2.078,1.819 -2.287,-0.572 -1.82,-3.015 -4.887,-3.222 -3.48,0.52 -5.613,4.417 -4.988,9.095 0.57,4.625 5.094,8.108 10.602,5.249 1.352,-0.26 1.455,0.832 0.365,1.561 -10.135,6.235 -16.269,-2.601 -15.853,-7.174 z M 63.952,80.656 c -0.208,-2.807 -1.091,-1.975 -3.274,-2.807 -1.767,-0.364 -1.923,-1.611 -0.156,-1.715 3.119,0.26 4.678,0.312 7.276,-0.104 1.196,0.208 1.715,0.676 2.131,1.819 2.183,4.626 5.353,11.539 7.536,16.164 0.416,0.832 0.624,0.987 1.092,-0.104 l 6.444,-16.424 c 0.728,-1.403 1.507,-1.715 3.743,-1.507 3.897,0.052 4.833,-0.052 6.756,-0.26 1.612,0.052 1.508,1.299 -0.104,1.767 -2.495,0 -3.794,0.884 -4.21,2.755 l 0.364,18.867 c 0.416,2.807 1.871,2.91 4.521,3.586 1.143,0.52 0.883,1.352 -0.104,1.611 -5.509,-0.625 -7.38,-0.572 -12.837,-0.053 -1.56,0.156 -1.664,-1.195 0.052,-1.559 1.975,-0.469 2.495,-0.832 2.962,-1.871 L 85.728,82.63 c -0.052,-0.728 -0.52,-0.728 -0.78,0.104 l -7.692,19.179 c -0.728,1.662 -1.04,1.662 -1.819,0.363 L 66.342,82.63 c -0.26,-0.676 -0.624,-0.468 -0.624,-0.052 l 0.052,17.359 c 0.26,2.027 1.663,2.131 4.521,3.016 0.78,0.26 0.832,0.936 0.156,1.352 -5.51,-0.469 -6.445,-0.469 -11.539,0.207 -0.832,0 -1.195,-1.195 0.052,-1.352 2.703,-0.779 3.482,-0.832 3.846,-2.391 z"
       id="path4"
       inkscape:connector-curvature="0"
       style="fill:#cf4037" />
    <path
       d="M 10.055,94.481 C 8.392,88.504 9.379,82.943 9.379,76.186 c 6.029,-2.962 11.954,-3.274 18.399,-3.274 5.613,0 13.514,0.728 18.295,3.274 0.468,6.341 0.728,11.902 -0.884,19.126 -1.611,7.172 -6.341,17.152 -17.151,24.48 C 16.24,112.1 12.394,102.744 10.055,94.481 Z"
       id="path8"
       inkscape:connector-curvature="0"
       style="fill:#cf4037" />
    <path
       d="m 15.72,85.698 -5.769,6.288 c 1.3,6.081 4.886,18.762 18.087,27.338 13.045,-8.99 16.528,-21.309 17.308,-27.442 l -5.613,-6.237 -6.289,6.341 -5.717,-6.288 -5.769,6.236 z m 2.651,-6.394 c -0.052,0 -0.208,-0.104 0,-0.156 0.156,0 0.416,0 0.78,0.416 0.104,-0.052 0.468,-0.572 0.78,-0.416 0,0.052 -1.144,2.599 -1.248,2.807 -0.52,-0.26 -3.482,-0.468 -3.17,-0.468 0.26,0 -2.703,0.104 -3.119,0.468 -0.156,-0.26 -1.299,-2.858 -1.299,-2.858 0.364,-0.156 0.728,0.364 0.832,0.416 0.312,-0.416 0.623,-0.416 0.675,-0.416 0.312,0.052 0.104,0.104 0.104,0.208 -1.455,1.144 0.624,2.443 1.091,1.144 1.819,0.208 1.299,-1.299 0.883,-1.507 -0.363,-0.052 -0.156,-0.156 0,-0.156 0.104,-0.052 0.364,-0.052 0.364,0.104 0,-0.832 0.052,-1.351 0.468,-1.611 0.468,0.312 0.52,0.779 0.468,1.611 0.052,-0.156 0.26,-0.104 0.416,-0.104 0.052,0.104 0.364,0.104 0.052,0.208 -0.468,0.156 -0.936,1.715 0.883,1.455 0.416,1.299 2.599,-0.157 1.04,-1.145 z m -1.196,1.508 0.52,0.624 -1.039,-0.156 z m -1.663,-0.728 0.676,1.195 h -1.3 z m -1.611,0.728 -0.52,0.624 1.04,-0.156 z"
       id="path10"
       inkscape:connector-curvature="0"
       style="fill:#ffffff" />
    <path
       d="m 13.122,83.358 c -0.208,-0.312 -0.416,-0.936 -0.572,-1.091 0.52,-0.416 2.391,-0.468 3.067,-0.468 0.987,0 2.391,0.156 2.858,0.468 0,0 -0.208,0.728 -0.416,1.195 -0.779,-0.312 -1.871,-0.416 -2.546,-0.416 -0.833,10e-4 -1.768,0.104 -2.391,0.312 z m 4.677,-0.987 c 0.156,0 0.312,0.208 0.312,0.312 0,0.208 -0.156,0.364 -0.312,0.364 -0.156,0 -0.364,-0.156 -0.364,-0.364 0,-0.104 0.208,-0.312 0.364,-0.312 z m -1.091,-0.208 c 0.156,0 0.312,0.156 0.312,0.312 0,0.156 -0.156,0.364 -0.312,0.364 -0.156,0 -0.364,-0.208 -0.364,-0.364 0,-0.156 0.207,-0.312 0.364,-0.312 z m -1.196,-0.104 c 0.208,0 0.363,0.156 0.363,0.312 a 0.355,0.355 0 0 1 -0.363,0.364 c -0.104,0 -0.312,-0.156 -0.312,-0.364 0,-0.156 0.208,-0.312 0.312,-0.312 z m -1.143,0.104 c 0.208,0 0.364,0.156 0.364,0.312 0,0.156 -0.156,0.364 -0.364,0.364 -0.156,0 -0.312,-0.208 -0.312,-0.364 0,-0.156 0.155,-0.312 0.312,-0.312 z m -1.04,0.208 c 0.156,0 0.364,0.208 0.364,0.312 0,0.208 -0.208,0.364 -0.364,0.364 -0.156,0 -0.364,-0.156 -0.364,-0.364 0,-0.104 0.208,-0.312 0.364,-0.312 z"
       id="path12"
       inkscape:connector-curvature="0"
       style="fill:#ffffff" />
    <path
       d="m 15.564,83.254 c 1.299,0 2.495,0.26 2.495,0.416 0,0.104 -1.04,0.208 -2.391,0.208 -1.299,0 -2.443,-0.104 -2.443,-0.208 0,-0.156 1.04,-0.416 2.339,-0.416 z m 27.494,-3.95 c -0.052,0 -0.208,-0.104 0,-0.156 0.104,0 0.416,0 0.728,0.416 0.156,-0.052 0.467,-0.572 0.832,-0.416 0,0.052 -1.144,2.599 -1.299,2.807 -0.468,-0.26 -3.431,-0.468 -3.17,-0.468 0.26,0 -2.651,0.104 -3.119,0.468 -0.156,-0.26 -1.299,-2.858 -1.299,-2.858 0.364,-0.156 0.728,0.364 0.884,0.416 0.26,-0.416 0.571,-0.416 0.623,-0.416 0.312,0.052 0.104,0.104 0.104,0.208 -1.403,1.144 0.624,2.443 1.091,1.144 1.819,0.208 1.299,-1.299 0.883,-1.507 -0.363,-0.052 -0.104,-0.156 0,-0.156 0.156,-0.052 0.364,-0.052 0.364,0.104 0,-0.832 0.052,-1.351 0.468,-1.611 0.468,0.312 0.52,0.779 0.468,1.611 0.052,-0.156 0.26,-0.104 0.467,-0.104 0.052,0.104 0.312,0.104 0.052,0.208 -0.52,0.156 -0.987,1.715 0.832,1.455 0.415,1.299 2.598,-0.157 1.091,-1.145 z m -1.247,1.508 0.571,0.624 -1.039,-0.156 z m -1.663,-0.728 0.676,1.195 h -1.248 z m -1.611,0.728 -0.52,0.624 1.039,-0.156 z"
       id="path14"
       inkscape:connector-curvature="0"
       style="fill:#ffffff" />
    <path
       d="m 37.809,83.358 c -0.208,-0.312 -0.468,-0.936 -0.572,-1.091 0.468,-0.416 2.339,-0.468 3.015,-0.468 1.04,0 2.391,0.156 2.859,0.468 0,0 -0.208,0.728 -0.364,1.195 -0.832,-0.312 -1.871,-0.416 -2.599,-0.416 -0.78,10e-4 -1.715,0.104 -2.339,0.312 z m 4.626,-0.987 c 0.156,0 0.364,0.208 0.364,0.312 0,0.208 -0.208,0.364 -0.364,0.364 -0.156,0 -0.312,-0.156 -0.312,-0.364 0,-0.104 0.156,-0.312 0.312,-0.312 z m -1.092,-0.208 c 0.156,0 0.364,0.156 0.364,0.312 0,0.156 -0.208,0.364 -0.364,0.364 -0.156,0 -0.312,-0.208 -0.312,-0.364 0,-0.156 0.156,-0.312 0.312,-0.312 z M 40.2,82.059 c 0.156,0 0.312,0.156 0.312,0.312 0,0.208 -0.156,0.364 -0.312,0.364 -0.156,0 -0.364,-0.156 -0.364,-0.364 0,-0.156 0.207,-0.312 0.364,-0.312 z m -1.196,0.104 c 0.208,0 0.364,0.156 0.364,0.312 0,0.156 -0.156,0.364 -0.364,0.364 -0.104,0 -0.312,-0.208 -0.312,-0.364 0,-0.156 0.208,-0.312 0.312,-0.312 z m -1.039,0.208 c 0.156,0 0.364,0.208 0.364,0.312 0,0.208 -0.208,0.364 -0.364,0.364 -0.156,0 -0.312,-0.156 -0.312,-0.364 0,-0.104 0.156,-0.312 0.312,-0.312 z"
       id="path16"
       inkscape:connector-curvature="0"
       style="fill:#ffffff" />
    <path
       d="m 40.2,83.254 c 1.299,0 2.495,0.26 2.495,0.416 0,0.104 -1.04,0.208 -2.391,0.208 -1.299,0 -2.443,-0.104 -2.443,-0.208 0,-0.156 1.039,-0.416 2.339,-0.416 z"
       id="path18"
       inkscape:connector-curvature="0"
       style="fill:#ffffff" />
    <path
       d="m 14.94,97.34 c 0.104,-0.209 0.26,-0.779 0.364,-0.936 -0.104,-0.209 -0.26,-0.417 -0.468,-0.417 0.104,-0.208 0.416,-0.468 0.364,-0.624 -0.052,-0.208 -0.208,-0.156 -0.572,-0.312 0.104,-0.26 0.416,-0.416 0.52,-0.416 0.208,-0.052 0.208,-0.312 0.571,-0.468 0.312,-0.208 0.676,-0.208 1.04,-0.208 0.572,0.052 2.027,0.468 1.664,2.234 0.832,1.768 3.95,-0.623 4.989,-0.623 -0.208,0.415 -0.416,0.832 -0.676,1.195 0.312,0.209 0.676,0 1.04,0 -0.364,0.988 -0.936,1.404 -1.403,1.768 0.468,1.611 2.287,0.986 3.95,0.779 -0.208,0.52 -0.884,0.623 -1.195,1.039 0.571,0.572 1.195,1.352 1.559,2.131 -0.728,-0.467 -2.235,-0.986 -2.754,-1.195 -0.936,-0.363 -2.963,-0.363 -3.95,0 0.208,0.416 0.571,0.572 0.883,0.832 -0.468,0.936 -1.507,0.363 -2.079,0.207 -0.52,0.365 -1.456,0.365 -1.663,0.156 0,0 0,-0.207 0.26,-0.467 0.208,-0.26 -0.572,-0.312 -0.832,-0.729 0,-0.311 0.468,0 0.624,-0.363 C 16.708,99.938 14.628,99.73 14.94,97.34 Z m 1.404,-2.807 c 0.104,0 0.156,0.104 0.156,0.208 0,0.104 -0.052,0.208 -0.156,0.208 -0.104,0 -0.208,-0.104 -0.208,-0.208 0,-0.104 0.104,-0.208 0.208,-0.208 z M 28.921,97.6 c 0.052,-0.156 0.26,-0.729 0.416,-0.936 -0.156,-0.208 -0.364,-0.416 -0.468,-0.416 0.052,-0.208 0.416,-0.468 0.312,-0.624 -0.052,-0.156 -0.208,-0.104 -0.52,-0.312 0.104,-0.26 0.312,-0.416 0.52,-0.416 0.208,0 0.208,-0.312 0.468,-0.52 0.364,-0.104 0.728,-0.104 1.144,-0.156 0.52,0.052 2.027,0.468 1.611,2.235 0.884,1.767 3.95,-0.624 5.042,-0.624 -0.208,0.416 -0.52,0.832 -0.676,1.195 0.26,0.209 0.676,0 0.987,0 -0.312,0.988 -0.935,1.404 -1.403,1.82 0.468,1.506 2.339,0.936 3.95,0.727 -0.156,0.572 -0.832,0.623 -1.195,1.039 0.572,0.572 1.195,1.352 1.611,2.184 -0.728,-0.52 -2.287,-1.039 -2.754,-1.248 -1.04,-0.363 -3.014,-0.363 -4.002,0 0.208,0.416 0.624,0.625 0.883,0.779 -0.52,1.041 -1.455,0.469 -2.027,0.262 -0.572,0.363 -1.455,0.363 -1.715,0.207 0,0 0,-0.312 0.312,-0.52 0.156,-0.26 -0.572,-0.312 -0.832,-0.729 0,-0.363 0.364,0 0.624,-0.363 -0.521,-0.987 -2.547,-1.194 -2.288,-3.584 z m 1.352,-2.755 c 0.156,0 0.208,0.052 0.208,0.156 0,0.104 -0.052,0.208 -0.208,0.208 -0.104,0 -0.156,-0.104 -0.156,-0.208 0,-0.104 0.051,-0.156 0.156,-0.156 z m -8.057,12.733 c 0.104,-0.207 0.26,-0.779 0.416,-0.986 -0.156,-0.156 -0.312,-0.416 -0.468,-0.416 0.052,-0.209 0.364,-0.416 0.312,-0.572 -0.052,-0.209 -0.156,-0.156 -0.572,-0.363 0.156,-0.209 0.416,-0.365 0.572,-0.416 0.208,0 0.208,-0.26 0.52,-0.469 0.312,-0.156 0.728,-0.156 1.091,-0.207 0.52,0.051 1.975,0.467 1.611,2.287 0.832,1.715 4.002,-0.625 5.042,-0.625 -0.208,0.365 -0.467,0.781 -0.675,1.195 0.312,0.209 0.675,0 0.987,0 -0.312,0.936 -0.884,1.352 -1.352,1.768 0.468,1.561 2.287,0.988 3.95,0.779 -0.208,0.52 -0.883,0.572 -1.195,0.988 0.572,0.623 1.195,1.352 1.559,2.184 -0.727,-0.469 -2.235,-0.988 -2.754,-1.195 -0.987,-0.365 -2.962,-0.365 -4.002,0 0.208,0.363 0.572,0.57 0.936,0.779 -0.52,0.986 -1.507,0.416 -2.131,0.207 -0.468,0.416 -1.403,0.416 -1.664,0.209 0,0 0,-0.26 0.312,-0.469 0.208,-0.312 -0.571,-0.363 -0.832,-0.727 0,-0.365 0.416,0 0.624,-0.365 -0.519,-1.039 -2.598,-1.246 -2.287,-3.586 z m 1.456,-2.807 c 0.052,0 0.156,0.053 0.156,0.209 0,0.051 -0.104,0.154 -0.156,0.154 -0.156,0 -0.26,-0.104 -0.26,-0.154 0,-0.156 0.104,-0.209 0.26,-0.209 z"
       id="path20"
       inkscape:connector-curvature="0"
       style="fill:#cf4037" />
    <path
       d="m 23.62,75.51 c 0,0 0.883,0.364 1.663,0.052 0.883,-0.364 1.715,-0.572 2.339,-0.26 v 7.537 c -0.52,-0.208 -1.248,-0.104 -2.079,0.104 -0.779,0.156 -1.247,0.208 -1.923,0.052 z m 2.495,5.562 c 0,-0.26 0.208,-0.312 0.312,-0.312 0.104,0 0.26,0.052 0.26,0.312 0,0.312 -0.156,0.416 -0.26,0.416 -0.104,0 -0.312,-0.105 -0.312,-0.416 z m -0.208,0 c 0,0.52 0.364,0.571 0.52,0.571 0.104,0 0.467,-0.052 0.467,-0.571 0,-0.468 -0.363,-0.52 -0.467,-0.52 -0.156,0 -0.52,0.052 -0.52,0.52 z m -0.416,0.26 -0.364,-0.728 h -0.26 v 1.039 h 0.208 v -0.728 l 0.416,0.728 h 0.208 v -1.039 h -0.208 z m -1.039,0.416 h 0.208 v -1.04 h -0.208 z m 2.598,-3.379 h -0.312 l -0.156,0.779 -0.208,-0.779 h -0.312 v 1.04 h 0.208 v -0.832 l 0.208,0.832 h 0.208 l 0.208,-0.832 v 0.832 h 0.156 z m -1.871,0.624 c 0,-0.312 0.156,-0.364 0.26,-0.364 0.104,0 0.26,0.052 0.26,0.364 0,0.26 -0.156,0.364 -0.26,0.364 -0.104,-0.001 -0.26,-0.105 -0.26,-0.364 z m -0.208,0 c 0,0.468 0.312,0.52 0.468,0.52 0.104,0 0.468,-0.052 0.468,-0.52 0,-0.468 -0.364,-0.52 -0.468,-0.52 -0.156,0 -0.468,0.052 -0.468,0.52 z m -0.779,-0.26 H 24.4 c 0.104,0 0.208,0.052 0.208,0.364 0,0.156 -0.053,0.312 -0.208,0.312 h -0.208 z m -0.208,0.883 H 24.4 c 0.364,0 0.416,-0.364 0.416,-0.52 0,-0.208 -0.052,-0.52 -0.364,-0.52 h -0.468 z m 1.923,-2.443 -0.416,-0.728 h -0.208 v 0.988 h 0.156 v -0.676 l 0.416,0.676 h 0.208 v -0.988 h -0.156 z m -1.143,0.312 h 0.208 v -0.988 h -0.208 z m -1.352,-1.975 -0.727,0.572 v 7.588 l 0.727,-0.675 z"
       id="path22"
       inkscape:connector-curvature="0"
       style="fill:#ffffff" />
    <path
       d="m 22.892,83.774 0.728,-0.572 c 0.52,0.156 1.611,-0.052 2.131,-0.156 0.883,-0.104 1.248,-0.312 1.871,0 -0.364,0.156 -0.572,0.467 -0.572,0.728 z m 9.615,0 -0.675,-0.572 c -0.572,0.156 -1.611,-0.052 -2.131,-0.156 -0.935,-0.104 -1.247,-0.312 -1.767,0 0.26,0.156 0.467,0.467 0.416,0.728 z m -0.467,-8.367 0.675,0.675 v 7.484 L 32.04,82.943 Z"
       id="path24"
       inkscape:connector-curvature="0"
       style="fill:#ffffff" />
    <path
       d="m 31.78,75.51 c 0,0 -0.884,0.364 -1.611,0.052 -0.936,-0.364 -1.715,-0.572 -2.234,-0.26 v 7.537 c 0.467,-0.208 1.091,-0.104 1.923,0.104 0.832,0.156 1.299,0.208 1.923,0.052 V 75.51 Z m -3.014,6.081 h 0.416 c 0.364,0 0.416,-0.312 0.416,-0.52 0,-0.208 -0.052,-0.468 -0.416,-0.468 h -0.416 z m 0.207,-0.831 h 0.208 c 0.104,0 0.208,0.052 0.208,0.312 0,0.208 -0.052,0.364 -0.208,0.364 h -0.208 z m 0.884,0.468 c 0,0.52 0.364,0.572 0.52,0.572 0.104,0 0.468,-0.052 0.468,-0.572 0,-0.468 -0.363,-0.52 -0.468,-0.52 -0.156,0 -0.52,0.052 -0.52,0.52 z m 0.26,0 c 0,-0.26 0.104,-0.312 0.26,-0.312 0.104,0 0.26,0.052 0.26,0.312 0,0.312 -0.156,0.364 -0.26,0.364 -0.156,-0.001 -0.26,-0.052 -0.26,-0.364 z m -0.832,-2.027 h 0.468 v -0.208 h -0.468 v -0.208 h 0.52 v -0.156 h -0.728 v 0.987 h 0.208 z m 0.78,0.415 h 0.208 V 78.629 H 30.065 Z M 29.129,76.81 c 0,-0.156 -0.156,-0.364 -0.416,-0.364 -0.312,0 -0.468,0.208 -0.468,0.52 0,0.364 0.156,0.572 0.468,0.572 0.208,0 0.364,-0.156 0.416,-0.364 h -0.208 c -0.052,0.104 -0.104,0.156 -0.208,0.156 -0.208,0 -0.26,-0.156 -0.26,-0.364 0,-0.259 0.156,-0.312 0.26,-0.312 0.156,0 0.156,0.104 0.208,0.156 z m 0.156,0.312 c 0,0.468 0.364,0.52 0.52,0.52 0.104,0 0.468,-0.052 0.468,-0.52 0,-0.468 -0.364,-0.52 -0.468,-0.52 -0.156,0 -0.52,0.052 -0.52,0.52 z m 0.26,0 c 0,-0.312 0.156,-0.364 0.26,-0.364 0.104,0 0.26,0.052 0.26,0.364 0,0.26 -0.156,0.364 -0.26,0.364 -0.104,-0.001 -0.26,-0.105 -0.26,-0.364 z m 1.507,0.208 -0.364,-0.728 h -0.26 v 1.039 h 0.208 v -0.728 l 0.416,0.728 h 0.208 v -1.039 h -0.208 z m -3.274,5.873 c -0.312,0.312 -0.468,0.312 -0.364,0.572 h 0.624 c 0.052,-0.261 0,-0.417 -0.26,-0.572 z"
       id="path26"
       inkscape:connector-curvature="0"
       style="fill:#ffffff" />
  </g>
</svg>
