<?xml version="1.0" encoding="UTF-8" standalone="no"?>
<!-- Created with Inkscape (http://www.inkscape.org/) -->

<svg
   xmlns:dc="http://purl.org/dc/elements/1.1/"
   xmlns:cc="http://creativecommons.org/ns#"
   xmlns:rdf="http://www.w3.org/1999/02/22-rdf-syntax-ns#"
   xmlns:svg="http://www.w3.org/2000/svg"
   xmlns="http://www.w3.org/2000/svg"
   xmlns:sodipodi="http://sodipodi.sourceforge.net/DTD/sodipodi-0.dtd"
   xmlns:inkscape="http://www.inkscape.org/namespaces/inkscape"
   version="1.1"
   id="svg2"
   xml:space="preserve"
   width="115.05837"
   height="112.8724"
   viewBox="0 0 115.05837 112.8724"
   sodipodi:docname="mpi.svg"
   inkscape:version="0.92.5 (2060ec1f9f, 2020-04-08)"><metadata
     id="metadata67"><rdf:RDF><cc:Work
         rdf:about=""><dc:format>image/svg+xml</dc:format><dc:type
           rdf:resource="http://purl.org/dc/dcmitype/StillImage" /><dc:title></dc:title></cc:Work></rdf:RDF></metadata><defs
     id="defs6"><clipPath
       clipPathUnits="userSpaceOnUse"
       id="clipPath903"><rect
         style="fill:#ffac33;fill-opacity:0;stroke:#000000;stroke-width:8.26500034;stroke-miterlimit:4;stroke-dasharray:none;stroke-opacity:1"
         id="rect905"
         width="873.83301"
         height="873.83301"
         x="3532.4822"
         y="-999.60992"
         transform="scale(1,-1)" /></clipPath></defs><sodipodi:namedview
     id="namedview4"
     pagecolor="#ffffff"
     bordercolor="#666666"
     borderopacity="1.0"
     inkscape:pageshadow="2"
     inkscape:pageopacity="0.0"
     inkscape:pagecheckerboard="0"
     showgrid="false"
     inkscape:zoom="4.6650637"
     inkscape:cx="4.4423478"
     inkscape:cy="25.921121"
     inkscape:window-width="3280"
     inkscape:window-height="1798"
     inkscape:window-x="144"
     inkscape:window-y="54"
     inkscape:window-maximized="1"
     inkscape:current-layer="g8"
     fit-margin-top="0"
     fit-margin-left="0"
     fit-margin-right="0"
     fit-margin-bottom="0" /><g
     id="g8"
     inkscape:groupmode="layer"
     inkscape:label="ink_ext_XXXXXX"
     transform="matrix(1.3333333,0,0,-1.3333333,-470.99761,132.13226)"><g
       id="g10"
       transform="scale(0.1)"
       style="stroke-width:8.26500034;stroke-miterlimit:4;stroke-dasharray:none"
       clip-path="url(#clipPath903)"><path
         d="m 3972.12,156.266 c -226.89,0 -411.45,184.57 -411.45,411.464 0,226.868 184.56,411.438 411.45,411.438 226.86,0 411.45,-184.57 411.45,-411.438 0,-226.894 -184.59,-411.464 -411.45,-411.464 z m 0,834.726 c -233.42,0 -423.3,-189.883 -423.3,-423.262 0,-233.41 189.88,-423.281 423.3,-423.281 233.39,0 423.3,189.871 423.3,423.281 0,233.379 -189.91,423.262 -423.3,423.262"
         style="fill:#246a64;fill-opacity:1;fill-rule:nonzero;stroke:none;stroke-width:8.26500034;stroke-miterlimit:4;stroke-dasharray:none"
         id="path12"
         inkscape:connector-curvature="0" /><path
         d="m 4250.22,498.863 c -13.13,-11.601 -33.31,-12.558 -41.46,-19.98 -4.26,-3.875 -6.18,-9.961 -1.59,-20.828 2.65,-6.262 4.49,-7.035 -4.53,-9.446 -14.63,-3.906 -16.64,-23.125 -35.26,-19.597 -7.46,1.414 -2.11,-3.364 0.58,-3.617 10.66,-1.012 14.88,1.996 18.62,5.492 3.74,3.504 8.72,9.801 14.45,11.968 5.9,2.239 11.88,2.09 11.97,-2.332 0.08,-3.371 -7.37,-8.718 -10.5,-10.175 3.8,-1.993 15.47,-7.918 5.51,-14.676 -7.75,-5.277 -18.43,2.027 -19.98,2.93 -2.29,1.336 -6.69,0.671 -5.23,-1.118 5.76,-7.039 21.2,-5.191 18.43,-8.925 -14.25,-19.168 -2.64,-30.36 -6.98,-49.625 -4.4,-19.536 -31.12,-30.227 -51.7,-33.938 -70,-12.629 -138.07,46.914 -177.98,91.785 3.63,8.52 3.17,19.641 -0.48,15.688 -3.44,-3.735 -2.87,-9.946 -11.18,-12.043 -16.05,-4.055 -22.95,23.808 -27.93,28.679 -19.5,19.106 -27.23,46.079 -15.58,69.68 11.76,23.836 36.19,19.063 45.94,4.641 12.13,-17.934 6.52,-28.137 13.41,-33.488 9.67,-7.532 19.4,-0.809 22.02,-0.098 7.36,2.012 6.79,-17.449 31.95,-16.555 27.04,0.969 23.99,43.039 27.81,46.77 34.71,33.847 16.99,64.05 10.69,71.074 -1.7,1.887 3.84,14.316 5.9,14.766 20.38,4.511 31.89,17.531 38.11,31.296 0,0 33.85,0.579 45.89,24.961 3.22,6.516 13.19,-6.289 35.81,11.477 2.54,2.004 4.94,1.055 5.9,-1.289 14.52,-35.625 20.64,-45.481 19.52,-63.633 -0.82,-13.215 35.24,-86.523 37.87,-92.871 2.93,-7.063 3.37,-13.992 0,-16.973 z M 4089.55,313.148 c -10.3,-35.625 -15.48,-49.851 -0.02,-88.543 2.06,-5.136 3.6,-9.011 -0.91,-8.242 -31.14,5.34 -37.86,10.457 -135.65,2.168 -7.04,-0.597 2.29,13.645 1.15,23.328 8.92,1.157 23.2,5.239 26.23,19.778 3.67,17.644 -8.63,30.593 -7.34,33.133 13.87,27.035 -0.89,56.996 -12.61,107.199 -1.1,4.707 1.62,6.765 3.68,4.531 62.83,-67.996 102.87,-81.516 124.5,-87.93 2.15,-0.644 1.73,-3.086 0.97,-5.422 z m -190.46,-94.214 c -6.44,1.589 -24.2,29.871 -9.75,63.601 1.54,3.567 23.69,1.348 27.4,0.227 3.72,-1.117 -3.04,-27.641 27.4,-39.387 3.11,-1.199 -0.13,-35.586 -45.05,-24.441 z m -45.71,16.941 c -3.36,14.836 -4.7,40.535 1.46,46.262 1.22,1.133 19.67,3.777 19.33,-0.442 -1.42,-17.707 -8.57,-37.48 4.91,-57.168 5.04,-7.363 -21.2,-8.547 -25.7,11.348 z m 108.78,17.5 c -23.96,-8.312 -33.41,19.727 -29.48,25.762 2.37,3.625 17.5,-4.121 29.28,3.465 9.07,5.851 14.08,-24.422 0.2,-29.227 z m -141.52,39.797 c -1.38,7.996 6.32,15.68 6.16,33.133 -0.2,21.418 -26.6,50.769 -44.49,69.648 8.39,0 19.39,1.992 31.73,7.703 26.61,12.324 31.84,40.625 32.61,41.778 0.35,0.531 -5.95,1.781 -15.03,1.894 0.98,0.481 1.96,0.969 2.96,1.508 26.03,13.953 32.85,44.141 31.61,44.812 -0.49,0.262 -6.98,1.282 -16.07,1.043 2.54,0.852 5.17,1.821 7.88,2.895 27.54,10.945 35.24,41.598 34.26,42.586 -0.43,0.437 -5.94,1.531 -13.96,1.75 2.44,0.945 4.94,2.027 7.49,3.301 25.15,12.5 33.86,40.613 32.56,41.543 -0.57,0.398 -5.68,1.394 -13.12,1.504 5.61,1.218 11.73,3.093 18.16,5.906 26.95,11.804 35.66,37.59 34.49,38.691 -0.5,0.457 -5.07,1.731 -11.93,2.285 5.37,1.211 11.24,2.852 17.51,5 26.66,9.102 37.43,34.578 35.85,34.727 -3.6,0.332 -8.56,2.082 -14.98,3.203 7.26,0.469 15.72,1.797 26.33,5.383 28.79,9.734 38.99,27.066 39.51,34.59 0.03,0.488 -3.45,2.008 -9.05,3.23 6.6,1.199 13.22,2.832 18.68,5.051 26.9,10.887 38.09,37.312 38.97,39.5 4.89,1.594 10.15,3.574 15.67,6.074 2.8,1.27 5.37,2.617 7.73,4.004 1.31,-0.996 3.41,-2.5 6.54,-4.504 4.06,-2.605 5.5,-3.222 3.48,-4.937 -91.51,-77.961 -160.07,-176.418 -190,-224.27 -0.84,-1.348 -2.41,-1.113 -4.95,-0.937 -32.05,2.121 -50.22,-36.028 -35.88,-71.797 -1.81,-7.266 -17.03,-21.309 -18.17,-22.332 -1.15,-1.02 -4.22,-5.481 1,-5.012 7.48,0.676 17.05,12.656 21.62,18.059 1.89,-2.368 8.94,-8.235 5.54,-11.575 -27.23,-26.718 -54.2,-41.113 -56.3,-42.136 -10.2,-4.985 17.02,-8.43 63.39,33.504 2.73,2.468 5.97,-9.676 10.11,-14.875 -7.97,-26.297 11.67,-77.039 8.6,-92.957 -0.52,-2.786 -2.18,-10.645 -11.45,-10.84 -45.96,-0.95 -50.47,1.164 -73.85,-5.723 -10.91,-3.223 -8.05,-10.422 -0.13,-8.273 8.97,2.445 18.37,6.078 68.14,2.968 12.15,-0.75 26.04,2.461 26.14,23 0.08,18.614 -14.7,74.129 -9.71,81.719 6.61,-4.973 11.37,-5.168 13.89,-5.605 -0.65,-18.106 28.5,-76.614 15.52,-108.875 -4.82,-11.985 -25.99,-11.094 -62.2,-7.512 -61.62,6.101 -81.6,-7.219 -82.86,0.168 z m -1.16,-44.555 c -2.64,10.625 -1.58,25.254 2.04,29.199 6.98,3.411 19.77,4.719 19.98,0.649 0.35,-6.516 -4.38,-21.945 1.18,-41.195 -1.28,-3.028 -18.7,-1.715 -23.2,11.347 z m -21.05,187.258 c 15.56,7.383 38.77,5.605 37.49,4.59 -1.27,-1.027 -7.38,-23.574 -24.93,-32.383 -17.5,-8.777 -29.09,-6.426 -35.39,-5.227 9.44,10.325 7.45,25.696 22.83,33.02 z M 3766.1,406.82 c -5.25,4.985 -16.6,17.524 -17.7,33.672 -0.04,0.805 -0.07,1.574 -0.07,2.356 -0.05,17.363 7.63,34.453 9.55,36.367 1.91,1.902 21.5,-13.328 21.8,-35.188 0.26,-18.941 -8.41,-29.824 -13.58,-37.207 z m -14.28,-22.488 c -0.07,-0.059 -0.11,-0.105 -0.18,-0.164 -43.36,51.082 -66.23,114.352 -66.23,183.562 0,158.094 128.6,286.7 286.71,286.7 41.71,0 81.79,-8.719 119.31,-25.918 -4.95,-2.293 -10.62,-5.657 -16.48,-10.457 -33,13.98 -66.23,20.535 -102.83,20.535 -149.36,0 -270.89,-121.504 -270.89,-270.86 0,-64.777 20.21,-121.699 59.8,-169.46 -2.29,-3.477 -5.52,-8.372 -9.21,-13.938 z m -0.58,-100.176 c -87.17,69.434 -139.33,174.27 -139.33,283.574 0,198.594 161.57,360.188 360.21,360.188 57.93,0 116.07,-14.516 167.09,-41.098 1.02,-0.523 1.19,-1.922 0.32,-2.683 -15,-13.094 -35.8,-38.77 -41.05,-45.938 -39.66,18.574 -82.12,28.059 -126.36,28.059 -164.61,0 -298.56,-133.918 -298.56,-298.528 0,-73.449 24.89,-140.46 71.85,-194.226 -2.7,-6.25 -7.5,-19.926 -7.5,-38.027 0,-14.985 2.78,-32.219 13.33,-51.321 z m 267.39,440.266 c -2.11,1.473 17.2,23.062 32.92,29.051 15.37,5.84 31.97,4.754 33.31,3.996 1.33,-0.754 -10.07,-19.465 -28.61,-26.985 -17.44,-7.058 -35.51,-7.539 -37.62,-6.062 z m -48.87,-39.707 c 0.29,1.148 16.28,23.68 32.77,29.39 15.68,5.422 34.87,1.79 36.92,0.918 2.06,-0.855 -11.1,-20.515 -31.24,-26.558 -18.13,-5.449 -38.73,-4.906 -38.45,-3.75 z m -48.38,-45.91 c -1.06,0.515 13.5,25.324 29.85,31.613 15.61,5.992 31.08,0.574 35.84,0.254 3.82,-0.254 -5.36,-18.227 -26.79,-26.137 -17.86,-6.582 -36.16,-7.078 -38.9,-5.73 z m -43.11,-47.676 c -1.28,0.976 17.77,25.918 33.67,33.269 13.98,6.465 32.27,5.098 33.8,4.082 1.53,-1.023 -7.45,-22.007 -25.89,-30.085 -17.59,-7.707 -40.29,-8.243 -41.58,-7.266 z m -35.97,-48.184 c 0.76,1.864 14.2,25.996 29.98,33.399 15.64,7.336 34.54,5.769 35.83,5.351 1.3,-0.422 -7.19,-21.75 -25.09,-30.625 -17.69,-8.8 -41.47,-9.992 -40.72,-8.125 z m -27.67,-47.55 c 1.15,6.125 12.09,26.41 28.56,33.742 v 0 c 16.49,7.351 35.6,6.797 37.76,5.91 2.17,-0.902 -6.85,-22.524 -23.46,-30.473 -18.59,-8.886 -26.03,-3.687 -42.86,-9.179 z m 1.4,-13.629 c 18.46,8.027 38.61,6.785 39.46,6.004 0.84,-0.782 -5.89,-23.489 -23.84,-33.118 -17.92,-9.597 -38.15,-10.496 -39.97,-8.203 -1.03,1.281 5.89,27.278 24.35,35.317 z m -29.34,50.601 c 7.09,-3.57 15.64,-13.894 16.44,-33.015 0.8,-19.2 -12.94,-35.442 -18.31,-37.989 -3.75,14.657 -10.84,17.735 -10.7,32.285 0.13,15.899 8.2,33.372 12.57,38.719 z m 48.73,25.235 c -0.38,-24.598 -15.83,-39.024 -20.45,-43.59 -2.86,4.871 -8.5,17.422 -8.89,30.593 -0.74,25.364 9.75,34.356 14.29,39.258 2.17,-7.265 15.25,-13.015 15.05,-26.261 z m 34.43,51.632 c 0,-4.746 -0.59,-7.453 -1.94,-12.089 -5.08,-17.508 -15.4,-24.883 -21.01,-32.786 -2.26,5.176 -6.39,12.524 -6.42,23.625 -0.05,21.153 12.84,39.18 20.91,44.871 3.07,0.129 8.46,-12.742 8.46,-23.621 z m 33.8,26.641 c -7.14,-15.559 -11.73,-16.066 -20.02,-25.754 -1.43,-1.668 -7.64,14.785 -1.62,35.461 4.8,16.555 15.91,22.664 21.26,28.281 2.12,2.207 7.97,-21.465 0.38,-37.988 z m 41.58,43.086 c -7.01,-12.234 -13.39,-9.434 -25.07,-26.797 -1.28,-1.926 -4.37,14.363 2.62,36.356 5.39,16.945 22.08,27.492 23.86,27.914 2.67,0.632 6.93,-22.93 -1.41,-37.473 z m 44.64,40.664 c -13.63,-20.332 -14.41,-13.391 -29.34,-33.273 -0.82,-1.09 -1.11,25.949 4.21,37.851 8.4,18.789 22.96,29.836 25.13,30.219 2.17,0.379 7.53,-23.586 0,-34.797 z m 40.84,30.273 c -11.13,-9.035 -16.2,-15.031 -22.71,-25.605 -2.21,-3.613 -7.61,20.051 6.87,42.742 8.87,13.918 26.52,26.391 26.14,24.738 -1.28,-5.546 8.57,-26.574 -10.3,-41.875 z m 37.23,52.532 c 11.47,13.601 30.95,24.547 33.14,23.203 2.24,-1.379 -3.27,-22.395 -15.84,-34.77 -12.7,-12.508 -32.34,-24.668 -34.63,-24.519 -2.28,0.144 6.99,23.84 17.33,36.086 z M 3769.3,481.246 c -5.81,6.699 -11.21,10.359 -11.76,9.973 -1.63,-1.133 -11.04,-17.231 -14.3,-36.035 -18.35,35.078 -28.52,70.543 -30.17,112.546 -5.62,142.715 113.9,257.649 259.76,257.137 33.27,-0.113 60.62,-6.265 90.51,-18.406 -6.69,-8.359 -11.55,-18.367 -14.85,-26.77 -0.14,7.739 -2.18,13.743 -1.61,18.579 0.35,2.976 -20.66,-3.567 -39.33,-33.274 -4.32,-6.887 -7.01,-14.512 -8.69,-21.531 -0.38,11.148 -2.99,19.832 -3.76,19.629 -1.91,-0.531 -23.21,-9.309 -34.31,-35.332 -1.96,-4.563 -3.37,-9.25 -4.42,-13.821 -0.92,7.942 -2.97,13.164 -3.62,13.133 -1.4,-0.054 -23.72,-9.234 -34.72,-35.972 -2.56,-6.211 -3.9,-12.571 -4.55,-18.481 -1.97,9.309 -5.57,15.012 -6.72,13.559 -7.7,-9.77 -22.75,-14.106 -30.75,-38.742 -1.87,-5.793 -2.62,-11.563 -2.71,-16.961 -3.32,8.336 -7.98,13.14 -9.06,12.918 -2.17,-0.461 -24.91,-22.059 -28.32,-43.848 -1.33,-8.594 -0.72,-16.582 0.61,-23.274 -4.35,7.024 -10.12,12.168 -12.46,19.321 -3.58,-1.914 -22.83,-20.012 -23.45,-43.203 -0.24,-9.016 1.1,-17.493 2.96,-24.629 -6.41,11.621 -15.49,17.066 -16.49,16.465 -1.66,-1.028 -16.04,-16.575 -19.38,-44.497 -0.78,-6.542 0.01,-12.8 1.59,-18.484 z m 335.76,315.449 c 14.58,6.551 28.68,6.668 30.19,6.485 3.3,-0.391 -7.37,-19.367 -26.39,-27.532 -19.61,-8.418 -34.24,-9.937 -35.9,-9.121 -2.51,1.243 16.61,23.188 32.1,30.168 z M 3975.38,497.84 c -4,0.879 -5.49,8.672 -4.68,11.758 1.81,6.843 12.32,21.011 16.12,25.972 0.95,1.243 2.88,0.102 3.09,-1.394 2.29,-16.446 -0.02,-39.524 -14.53,-36.336 z m 77.63,103.277 c -8.69,-5.906 -21.22,2.102 -18.72,5.676 16.15,23.035 37.66,39.07 46.26,44.426 13.84,8.601 15.31,9.207 16.03,4.344 0.44,-2.93 0.58,-18 -10.56,-30.235 -9.25,-10.144 -18.51,-9.297 -23.28,-10.359 -3.22,-0.727 -3.03,-9.297 -9.73,-13.852 z m -24.45,-117.304 c -16.21,-9.942 -25.01,9.054 -27.3,12.375 -1,1.425 -3.58,5.605 -2.17,12.746 1.1,5.625 2.04,13.257 -1.66,37.476 -1.62,10.656 20.42,37.082 25.37,41.699 5.16,4.797 12.65,-2.39 13.13,-10.191 0.93,-14.836 -7.4,-22.629 -15.89,-28.957 -10.43,-7.773 -12.42,-17.883 -10.43,-20.586 0.77,-1.055 5.44,-1.082 7.51,3.301 6.27,13.371 24.23,20.105 27.1,27.109 4.48,10.938 1.21,17.957 0.77,22.567 -0.38,4.015 3.54,5.031 6.5,4.589 3.82,-0.574 5.52,-5.757 7.45,-10.808 11.61,-30.242 -17.6,-48.535 -22.3,-55.695 -2.17,-3.297 4.53,-27.899 -8.08,-35.625 z m 81.83,183.847 c -0.83,4.856 34.43,16.711 35.65,13.203 2.27,-6.472 -7.28,-23.867 -19.09,-28.211 -13.4,-4.941 -18.98,-3.476 -18.47,-1.562 0.93,3.508 2.68,12.109 1.91,16.57 z m 83.19,21.555 c -4.15,-11.875 -36.94,-22.41 -35.39,-14.07 0.7,3.757 0.08,8.707 2.58,9.136 3.63,0.625 14,4.239 30.12,8.371 1.61,0.411 3.72,-0.5 2.69,-3.437 z m -33.11,87.422 c 4.81,3.027 9.99,4.316 13.03,1.308 10.58,-10.449 -11.47,-16.316 -6.88,-24.343 7.53,-13.176 19.51,-25.786 30.09,-33.918 4.97,-3.829 5.69,-12.442 -13.31,-16.375 -19.13,-3.957 -95.27,-24.028 -135.44,-66.594 -50.31,-53.289 -82.28,-122.324 -86.65,-112.832 -4.39,9.558 -14.47,11.101 -12.9,13.816 72.23,124.453 185.42,222.18 212.06,238.938 z M 3809.76,268.863 c -2.86,-0.566 -11.99,-0.918 -9.95,11.094 1.27,7.41 9.31,10.52 13.39,6.309 -0.87,-5.762 -2.85,-11.387 -3.44,-17.403 z m 410.71,331.223 c -5.85,12.242 -1.84,20.281 -3.58,29.234 -1.28,6.606 -11.11,28.371 -17.38,43.442 -2.95,7.097 15.17,5.359 1.79,30.984 -0.39,0.762 18.61,7.774 -0.39,22.18 -10.63,8.062 -18.1,17.976 -23.97,26.902 -0.81,1.238 -1.59,3.699 0.13,5.227 10.74,9.547 10.96,23.289 -0.7,30.308 -8.41,5.071 -18.08,-0.066 -26.97,-5.828 -2.92,-1.894 -4.39,-3.058 -7.45,-1.816 -1.56,0.633 -4.56,2.746 -7.26,4.597 10.97,10.598 13.1,21.055 12.24,22.793 -0.59,1.184 -18.59,5.215 -40.89,-4.004 -0.49,0.278 -1,0.571 -1.57,0.872 9.18,15.878 4.02,27.082 3.34,27.863 -0.01,0.008 -0.04,0.008 -0.05,0.015 16.71,23.34 33.3,38.872 49.7,53.774 0,0 0.35,0.391 0.36,0.398 1.07,1.082 1.46,2.286 -0.58,3.567 -1.72,1.082 -2.19,1.336 -4.29,2.476 -54.97,30.598 -117.59,46.684 -180.83,46.684 -205.14,0 -372.03,-166.914 -372.03,-372.024 0,-118.847 60.32,-233.476 158.86,-304.687 6.56,-4.746 11.11,-6.555 11.11,-6.555 1.65,-0.562 3.33,-0.554 4.36,0.793 l 1.46,1.914 c 0.93,1.2 1.3,2.364 1.3,3.418 0,2.715 -3.93,5.149 -8.54,11.985 -13.32,19.761 -19.21,42.234 -19.21,61.05 0,20.586 6.27,39.321 18.31,54.934 14.85,-15.48 47.25,-43.926 46.53,-69.805 -0.78,-29.062 -27.97,-27.629 -22.11,-49.433 3.69,-13.684 13.92,-8.047 15.69,-18.418 3.05,-17.981 27.23,-29.473 37.76,-27.891 2.56,0.383 4.73,-1.738 9.77,-6.855 7.19,-7.293 24.88,-6.309 32.73,-4.871 7.46,1.367 16.84,-5.454 32.44,-3.735 19.53,2.16 24.5,3.664 32.84,3.781 14.11,0.204 90.86,1.348 145.42,-7.199 9.42,-1.472 12.4,2.766 8.19,10.11 -19.78,34.445 -22.52,63.691 -11.12,100.515 20.15,-1.355 49.13,-6.804 87.28,16.125 13.54,8.145 21.1,25.481 20.45,38.399 -0.43,8.379 -4.1,18.996 -1.93,27.168 2.92,10.965 5.04,10.711 8.22,12.937 14.57,10.258 4.05,18.383 1.81,19.211 4.39,1.785 9.22,11.356 4.14,18.477 -2.61,2.785 -10.54,25.078 -1.39,29.726 9.87,5.012 21.14,7.141 32.5,12.117 7.79,3.262 14.02,12.368 9.57,24.446 -5.34,14.511 -35.15,82.793 -36.06,84.699"
         style="fill:#246a64;fill-opacity:1;fill-rule:nonzero;stroke:none;stroke-width:8.26500034;stroke-miterlimit:4;stroke-dasharray:none"
         id="path14"
         inkscape:connector-curvature="0" /><path
         d="m 4168.76,628.023 c -19.71,-0.73 -42.59,-24.875 -50.07,-28.222 -7.84,-3.516 -5.05,-5.735 -0.49,-4.074 9.81,3.586 23.79,18.566 43.1,25.546 15.26,5.508 14.26,-7.039 20,-6.343 2.67,0.32 -1.16,13.511 -12.54,13.093"
         style="fill:#246a64;fill-opacity:1;fill-rule:nonzero;stroke:none;stroke-width:8.26500034;stroke-miterlimit:4;stroke-dasharray:none"
         id="path16"
         inkscape:connector-curvature="0" /><path
         d="m 4165.94,571.402 c -0.89,-3.679 -21.99,-2.004 -33.46,-1.007 -2.73,0.246 -7.32,0.664 1.43,5.89 6.89,4.11 16.35,11.043 28.73,13.438 1.02,0.195 3,-0.125 3.51,-2.43 1.28,-5.805 0.72,-12.109 -0.21,-15.891 z m 7.27,37.305 c -1.62,-0.391 1.73,-8.809 -6.85,-9.336 -18.52,-1.144 -33.19,-18.683 -44.49,-23.945 -11.29,-5.266 -13.64,-5.176 -15.32,-5.625 -1.51,-0.41 -0.95,-2.344 0.3,-2.508 47.24,-6.313 65.38,-4.582 65.79,-2.863 0.76,3.242 -2.63,4.875 -1.93,6.953 1.78,5.262 2.67,15.234 0.64,22.082 -0.87,3.23 7,1.07 7,5.43 0,2.339 -2.38,10.464 -5.14,9.812"
         style="fill:#246a64;fill-opacity:1;fill-rule:nonzero;stroke:none;stroke-width:8.26500034;stroke-miterlimit:4;stroke-dasharray:none"
         id="path18"
         inkscape:connector-curvature="0" /><path
         d="m 4227.62,504.129 c -3.61,0.047 -18.15,-6.606 -23.62,-10.078 -3.15,-2.016 -17.94,-11.125 -16.88,3.301 0.37,5.046 3.65,17.586 3.57,21.003 -0.12,5.215 -4.3,3.165 -4.38,0.079 -0.18,-7.246 -1.64,-12.746 -3.12,-21.231 -1.28,-7.265 5.04,-16.262 14.85,-11.023 8.15,4.336 19.25,11.785 29.1,13.672 2.51,0.488 2.96,4.238 0.48,4.277"
         style="fill:#246a64;fill-opacity:1;fill-rule:nonzero;stroke:none;stroke-width:8.26500034;stroke-miterlimit:4;stroke-dasharray:none"
         id="path20"
         inkscape:connector-curvature="0" /><path
         d="m 3954.02,452.508 c -2.8,1.051 -2.02,-4.719 -5.8,-4.082 -4.95,0.828 -0.8,5.293 -7.25,12.117 -3.21,3.391 -11.27,4.824 -17.21,14.336 -9.42,15.059 -1.33,48.613 12.43,43.801 7.64,-2.676 6.31,-20.461 4.01,-32.512 -1.4,-7.422 10.14,-11.082 11.18,-8.496 1.76,4.363 -4.24,3.945 -5.62,7.93 -2.11,6.113 14.14,30.586 -7.1,37.675 -15.52,5.176 -25.72,-14.343 -23.85,-35.957 1.57,-18.215 13.68,-25.742 20.62,-28.308 9.34,-3.469 2.25,-16.274 14.87,-16.328 5.58,-0.032 6.74,8.687 3.72,9.824"
         style="fill:#246a64;fill-opacity:1;fill-rule:nonzero;stroke:none;stroke-width:8.26500034;stroke-miterlimit:4;stroke-dasharray:none"
         id="path22"
         inkscape:connector-curvature="0" /><path
         d="m 4078.13,856.344 c 0.67,-0.242 1.41,-0.031 1.85,0.527 l 26.23,33.192 c 0.67,0.863 0.35,2.128 -0.66,2.539 -1.47,0.609 -2.96,1.203 -4.45,1.781 -0.66,0.262 -1.44,0.047 -1.88,-0.52 l -26.36,-33.332 c -0.71,-0.879 -0.32,-2.183 0.74,-2.554 1.51,-0.532 3.02,-1.079 4.53,-1.633"
         style="fill:#246a64;fill-opacity:1;fill-rule:nonzero;stroke:none;stroke-width:8.26500034;stroke-miterlimit:4;stroke-dasharray:none"
         id="path24"
         inkscape:connector-curvature="0" /><path
         d="m 4029.44,869.879 c 1.51,-0.293 3.02,-0.598 4.52,-0.906 0.77,-0.16 1.55,0.254 1.86,0.984 l 15.36,38.008 c 0.38,0.937 -0.18,2.004 -1.16,2.219 -1.7,0.379 -3.4,0.742 -5.11,1.089 -0.46,0.098 -0.93,-0.144 -1.11,-0.585 -1.95,-4.825 -12.64,-31.305 -15.58,-38.59 -0.39,-0.969 0.2,-2.035 1.22,-2.219"
         style="fill:#246a64;fill-opacity:1;fill-rule:nonzero;stroke:none;stroke-width:8.26500034;stroke-miterlimit:4;stroke-dasharray:none"
         id="path26"
         inkscape:connector-curvature="0" /><path
         d="m 3975.35,875.191 c 1.52,-0.019 3.04,-0.039 4.56,-0.078 0.86,-0.027 1.59,0.614 1.67,1.477 l 3.8,40.348 c 0.09,0.941 -0.65,1.769 -1.59,1.796 -1.54,0.039 -3.08,0.079 -4.61,0.118 -0.86,0.019 -1.6,-0.633 -1.67,-1.493 l -3.78,-40.39 c -0.09,-0.957 0.65,-1.778 1.62,-1.778"
         style="fill:#246a64;fill-opacity:1;fill-rule:nonzero;stroke:none;stroke-width:8.26500034;stroke-miterlimit:4;stroke-dasharray:none"
         id="path28"
         inkscape:connector-curvature="0" /><path
         d="m 3922.77,871.234 c 1.5,0.246 3.01,0.469 4.51,0.696 0.93,0.136 1.55,1.015 1.38,1.933 l -7.69,39.766 c -0.16,0.867 -0.98,1.457 -1.86,1.316 -1.52,-0.222 -3.03,-0.468 -4.54,-0.711 -0.92,-0.156 -1.53,-1.035 -1.35,-1.941 l 7.67,-39.746 c 0.18,-0.871 1,-1.445 1.88,-1.313"
         style="fill:#246a64;fill-opacity:1;fill-rule:nonzero;stroke:none;stroke-width:8.26500034;stroke-miterlimit:4;stroke-dasharray:none"
         id="path30"
         inkscape:connector-curvature="0" /><path
         d="m 3869.08,858.961 c 0.37,-0.742 1.23,-1.082 2.01,-0.82 1.45,0.507 2.9,1.004 4.36,1.496 0.94,0.308 1.39,1.383 0.94,2.285 l -18.2,36.531 c -0.37,0.742 -1.24,1.094 -2.02,0.82 -1.47,-0.507 -2.91,-1.027 -4.37,-1.55 -0.91,-0.332 -1.34,-1.41 -0.91,-2.289 l 18.19,-36.473"
         style="fill:#246a64;fill-opacity:1;fill-rule:nonzero;stroke:none;stroke-width:8.26500034;stroke-miterlimit:4;stroke-dasharray:none"
         id="path32"
         inkscape:connector-curvature="0" /><path
         d="m 3818.93,835.777 c 0.51,-0.586 1.36,-0.73 2.04,-0.343 1.34,0.761 2.7,1.527 4.06,2.265 0.92,0.5 1.15,1.723 0.45,2.512 l -27.22,31.102 c -0.52,0.597 -1.4,0.746 -2.07,0.343 -1.35,-0.793 -2.69,-1.593 -4.03,-2.39 -0.86,-0.532 -1.05,-1.719 -0.38,-2.493 l 27.15,-30.996"
         style="fill:#246a64;fill-opacity:1;fill-rule:nonzero;stroke:none;stroke-width:8.26500034;stroke-miterlimit:4;stroke-dasharray:none"
         id="path34"
         inkscape:connector-curvature="0" /><path
         d="m 3772.32,802.855 c 0.61,-0.417 1.42,-0.378 1.98,0.098 1.21,1.02 2.43,2.024 3.66,3.027 0.84,0.688 0.8,1.997 -0.1,2.622 l -34.42,23.894 c -0.61,0.43 -1.44,0.391 -2.02,-0.105 -1.19,-1.047 -2.37,-2.09 -3.54,-3.157 -0.79,-0.703 -0.72,-1.964 0.16,-2.566 l 34.28,-23.813"
         style="fill:#246a64;fill-opacity:1;fill-rule:nonzero;stroke:none;stroke-width:8.26500034;stroke-miterlimit:4;stroke-dasharray:none"
         id="path36"
         inkscape:connector-curvature="0" /><path
         d="m 3731.69,760.992 c 0.66,-0.254 1.41,-0.051 1.86,0.496 1.01,1.25 2.02,2.485 3.05,3.703 0.73,0.86 0.4,2.168 -0.65,2.579 l -39.57,15.41 c -0.68,0.261 -1.45,0.047 -1.9,-0.528 -0.98,-1.257 -1.94,-2.531 -2.9,-3.808 -0.66,-0.867 -0.29,-2.117 0.72,-2.52 l 39.39,-15.332"
         style="fill:#246a64;fill-opacity:1;fill-rule:nonzero;stroke:none;stroke-width:8.26500034;stroke-miterlimit:4;stroke-dasharray:none"
         id="path38"
         inkscape:connector-curvature="0" /><path
         d="m 3656.93,717.738 42.4,-5.918 c 0.69,-0.093 1.35,0.246 1.67,0.852 0.76,1.433 1.55,2.859 2.34,4.289 0.55,1.004 -0.07,2.254 -1.21,2.41 l -42.62,5.938 c -0.71,0.097 -1.39,-0.262 -1.7,-0.899 -0.72,-1.433 -1.44,-2.883 -2.14,-4.324 -0.49,-1.008 0.16,-2.191 1.26,-2.348"
         style="fill:#246a64;fill-opacity:1;fill-rule:nonzero;stroke:none;stroke-width:8.26500034;stroke-miterlimit:4;stroke-dasharray:none"
         id="path40"
         inkscape:connector-curvature="0" /><path
         d="m 3633.73,653.453 43.24,4.141 c 0.66,0.066 1.21,0.515 1.41,1.14 0.49,1.575 0.99,3.157 1.5,4.719 0.37,1.121 -0.53,2.266 -1.71,2.149 l -43.5,-4.153 c -0.67,-0.054 -1.25,-0.535 -1.42,-1.199 -0.44,-1.582 -0.86,-3.164 -1.27,-4.746 -0.28,-1.106 0.61,-2.156 1.75,-2.051"
         style="fill:#246a64;fill-opacity:1;fill-rule:nonzero;stroke:none;stroke-width:8.26500034;stroke-miterlimit:4;stroke-dasharray:none"
         id="path42"
         inkscape:connector-curvature="0" /><path
         d="m 3666.54,602.066 c 0.18,1.68 0.39,3.36 0.6,5.039 0.16,1.211 -1,2.161 -2.15,1.758 l -42.15,-14.66 c -0.63,-0.215 -1.06,-0.777 -1.11,-1.433 -0.11,-1.661 -0.21,-3.321 -0.31,-4.981 -0.06,-1.16 1.09,-2.019 2.19,-1.641 l 41.85,14.551 c 0.59,0.215 1.01,0.742 1.08,1.367"
         style="fill:#246a64;fill-opacity:1;fill-rule:nonzero;stroke:none;stroke-width:8.26500034;stroke-miterlimit:4;stroke-dasharray:none"
         id="path44"
         inkscape:connector-curvature="0" /><path
         d="m 3665.48,544.527 c -0.12,1.739 -0.24,3.477 -0.34,5.215 -0.07,1.262 -1.47,1.985 -2.53,1.289 l -38.17,-25.066 c -0.53,-0.356 -0.81,-0.969 -0.73,-1.594 0.22,-1.687 0.45,-3.359 0.69,-5.039 0.18,-1.184 1.53,-1.785 2.54,-1.133 l 37.82,24.844 c 0.49,0.32 0.77,0.898 0.72,1.484"
         style="fill:#246a64;fill-opacity:1;fill-rule:nonzero;stroke:none;stroke-width:8.26500034;stroke-miterlimit:4;stroke-dasharray:none"
         id="path46"
         inkscape:connector-curvature="0" /><path
         d="m 3675.05,487.008 c -0.47,1.765 -0.91,3.523 -1.33,5.301 -0.32,1.281 -1.93,1.691 -2.82,0.714 l -31.05,-34.187 c -0.4,-0.441 -0.53,-1.074 -0.33,-1.645 0.56,-1.636 1.13,-3.281 1.72,-4.921 0.42,-1.161 1.93,-1.461 2.77,-0.543 l 30.66,33.765 c 0.38,0.41 0.51,0.988 0.38,1.516"
         style="fill:#246a64;fill-opacity:1;fill-rule:nonzero;stroke:none;stroke-width:8.26500034;stroke-miterlimit:4;stroke-dasharray:none"
         id="path48"
         inkscape:connector-curvature="0" /><path
         d="m 3690.91,435.973 -21.9,-41.653 c -0.26,-0.507 -0.24,-1.109 0.04,-1.597 0.9,-1.555 1.82,-3.11 2.75,-4.641 0.67,-1.094 2.27,-1.035 2.86,0.09 l 21.66,41.211 c 0.25,0.469 0.26,1.023 0.02,1.504 -0.85,1.676 -1.69,3.355 -2.51,5.047 -0.58,1.211 -2.3,1.218 -2.92,0.039"
         style="fill:#246a64;fill-opacity:1;fill-rule:nonzero;stroke:none;stroke-width:8.26500034;stroke-miterlimit:4;stroke-dasharray:none"
         id="path50"
         inkscape:connector-curvature="0" /><path
         d="m 3721.71,389.156 c -0.82,1.121 -2.59,0.774 -2.92,-0.586 l -11.72,-48.359 c -0.13,-0.52 0,-1.066 0.35,-1.465 1.21,-1.418 2.45,-2.82 3.69,-4.226 0.88,-0.989 2.51,-0.579 2.82,0.71 l 11.58,47.801 c 0.12,0.481 0.02,0.981 -0.28,1.367 -1.18,1.575 -2.36,3.157 -3.52,4.758"
         style="fill:#246a64;fill-opacity:1;fill-rule:nonzero;stroke:none;stroke-width:8.26500034;stroke-miterlimit:4;stroke-dasharray:none"
         id="path52"
         inkscape:connector-curvature="0" /><path
         d="m 192.125,567.02 48.086,-138.54 47.832,138.54 h 50.652 V 376.004 h -38.699 v 52.215 l 3.856,90.129 -50.528,-142.344 H 226.84 l -50.399,142.215 3.856,-90 V 376.004 H 141.734 V 567.02 h 50.391"
         style="fill:#246a64;fill-opacity:1;fill-rule:nonzero;stroke:none;stroke-width:8.26500034;stroke-miterlimit:4;stroke-dasharray:none"
         id="path54"
         inkscape:connector-curvature="0" /><path
         d="m 436.336,447.242 h 46.793 l -23.524,71.492 z m 57.215,-31.887 h -67.629 l -12.859,-39.351 h -41.016 l 69.687,191.016 h 35.743 l 70.07,-191.016 h -41.02 l -12.976,39.351"
         style="fill:#246a64;fill-opacity:1;fill-rule:nonzero;stroke:none;stroke-width:8.26500034;stroke-miterlimit:4;stroke-dasharray:none"
         id="path56"
         inkscape:connector-curvature="0" /><path
         d="m 645.18,501.156 35.097,65.864 h 44.356 l -54.512,-94.719 55.93,-96.297 h -44.875 l -35.996,66.902 -36.004,-66.902 h -44.863 l 55.925,96.297 -54.519,94.719 h 44.367 l 35.094,-65.864"
         style="fill:#246a64;fill-opacity:1;fill-rule:nonzero;stroke:none;stroke-width:8.26500034;stroke-miterlimit:4;stroke-dasharray:none"
         id="path58"
         inkscape:connector-curvature="0" /><path
         d="m 875.934,475.184 h 34.461 c 10.195,0 17.968,2.449 23.332,7.351 5.363,4.895 8.035,11.887 8.035,20.985 0,9.359 -2.703,16.925 -8.094,22.699 -5.402,5.769 -12.863,8.75 -22.371,8.926 h -35.363 z m 0,-31.875 V 376.004 H 837.367 V 567.02 h 73.028 c 14.054,0 26.418,-2.622 37.089,-7.875 10.676,-5.243 18.879,-12.704 24.621,-22.364 5.743,-9.668 8.614,-20.664 8.614,-32.996 0,-18.722 -6.281,-33.476 -18.84,-44.277 -12.559,-10.801 -29.93,-16.199 -52.125,-16.199 h -33.82"
         style="fill:#246a64;fill-opacity:1;fill-rule:nonzero;stroke:none;stroke-width:8.26500034;stroke-miterlimit:4;stroke-dasharray:none"
         id="path60"
         inkscape:connector-curvature="0" /><path
         d="m 1058.94,407.621 h 81.91 V 376.004 H 1020.38 V 567.02 h 38.56 V 407.621"
         style="fill:#246a64;fill-opacity:1;fill-rule:nonzero;stroke:none;stroke-width:8.26500034;stroke-miterlimit:4;stroke-dasharray:none"
         id="path62"
         inkscape:connector-curvature="0" /><path
         d="m 1227.04,447.242 h 46.79 l -23.52,71.492 z m 57.21,-31.887 h -67.62 l -12.86,-39.351 h -41.02 l 69.69,191.016 h 35.74 l 70.07,-191.016 h -41.02 l -12.98,39.351"
         style="fill:#246a64;fill-opacity:1;fill-rule:nonzero;stroke:none;stroke-width:8.26500034;stroke-miterlimit:4;stroke-dasharray:none"
         id="path64"
         inkscape:connector-curvature="0" /><path
         d="m 1521.13,376.004 h -38.58 l -75.08,125.68 V 376.004 H 1368.9 V 567.02 h 38.57 l 75.21,-125.95 v 125.95 h 38.45 V 376.004"
         style="fill:#246a64;fill-opacity:1;fill-rule:nonzero;stroke:none;stroke-width:8.26500034;stroke-miterlimit:4;stroke-dasharray:none"
         id="path66"
         inkscape:connector-curvature="0" /><path
         d="m 1714.93,439.637 c -1.47,-20.559 -8.9,-36.742 -22.31,-48.547 -13.42,-11.809 -31.09,-17.715 -53.03,-17.715 -24.01,0 -42.89,8.242 -56.65,24.734 -13.75,16.489 -20.63,39.114 -20.63,67.895 v 11.68 c 0,18.359 3.17,34.539 9.51,48.535 6.35,13.992 15.41,24.734 27.2,32.207 11.79,7.476 25.48,11.219 41.07,11.219 21.6,0 39.01,-5.911 52.21,-17.715 13.19,-11.809 20.82,-28.379 22.88,-49.715 h -38.57 c -0.94,12.332 -4.31,21.265 -10.09,26.824 -5.79,5.559 -14.59,8.328 -26.43,8.328 -12.85,0 -22.48,-4.695 -28.85,-14.097 -6.39,-9.407 -9.67,-23.989 -9.84,-43.75 v -14.434 c 0,-20.648 3.06,-35.734 9.19,-45.266 6.12,-9.531 15.79,-14.297 29,-14.297 11.91,0 20.8,2.774 26.68,8.329 5.86,5.546 9.22,14.14 10.08,25.785 h 38.58"
         style="fill:#246a64;fill-opacity:1;fill-rule:nonzero;stroke:none;stroke-width:8.26500034;stroke-miterlimit:4;stroke-dasharray:none"
         id="path68"
         inkscape:connector-curvature="0" /><path
         d="m 1812.05,452.621 -20.06,-22.039 v -54.578 h -38.57 V 567.02 h 38.57 v -86.586 l 16.97,23.742 47.7,62.844 h 47.45 l -66.48,-84.883 68.4,-106.133 h -45.9 l -48.08,76.617"
         style="fill:#246a64;fill-opacity:1;fill-rule:nonzero;stroke:none;stroke-width:8.26500034;stroke-miterlimit:4;stroke-dasharray:none"
         id="path70"
         inkscape:connector-curvature="0" /><path
         d="m 2053.47,376.004 h -38.56 V 567.02 h 38.56 V 376.004"
         style="fill:#246a64;fill-opacity:1;fill-rule:nonzero;stroke:none;stroke-width:8.26500034;stroke-miterlimit:4;stroke-dasharray:none"
         id="path72"
         inkscape:connector-curvature="0" /><path
         d="m 2254.61,376.004 h -38.57 l -75.09,125.68 v -125.68 h -38.56 V 567.02 h 38.56 l 75.22,-125.95 v 125.95 h 38.44 V 376.004"
         style="fill:#246a64;fill-opacity:1;fill-rule:nonzero;stroke:none;stroke-width:8.26500034;stroke-miterlimit:4;stroke-dasharray:none"
         id="path74"
         inkscape:connector-curvature="0" /><path
         d="m 2398.52,426.117 c 0,7.434 -2.57,13.137 -7.7,17.121 -5.15,3.977 -14.41,8.172 -27.78,12.598 -13.37,4.414 -23.96,8.769 -31.76,13.047 -21.25,11.719 -31.88,27.512 -31.88,47.363 0,10.32 2.85,19.531 8.54,27.617 5.71,8.086 13.89,14.414 24.57,18.953 10.67,4.551 22.64,6.829 35.93,6.829 13.37,0 25.29,-2.469 35.75,-7.415 10.45,-4.937 18.57,-11.921 24.36,-20.925 5.78,-9.004 8.67,-19.239 8.67,-30.696 h -38.56 c 0,8.743 -2.71,15.539 -8.11,20.403 -5.4,4.851 -12.98,7.273 -22.75,7.273 -9.44,0 -16.76,-2.027 -21.98,-6.101 -5.24,-4.063 -7.85,-9.422 -7.85,-16.067 0,-6.211 3.06,-11.414 9.19,-15.613 6.13,-4.199 15.15,-8.137 27.06,-11.809 21.95,-6.734 37.93,-15.086 47.96,-25.054 10.03,-9.973 15.04,-22.395 15.04,-37.258 0,-16.531 -6.12,-29.5 -18.38,-38.906 -12.26,-9.395 -28.76,-14.102 -49.5,-14.102 -14.4,0 -27.52,2.695 -39.34,8.074 -11.83,5.371 -20.85,12.746 -27.06,22.102 -6.23,9.355 -9.33,20.207 -9.33,32.539 h 38.7 c 0,-21.082 12.34,-31.621 37.03,-31.621 9.17,0 16.33,1.902 21.48,5.715 5.13,3.796 7.7,9.109 7.7,15.933"
         style="fill:#246a64;fill-opacity:1;fill-rule:nonzero;stroke:none;stroke-width:8.26500034;stroke-miterlimit:4;stroke-dasharray:none"
         id="path76"
         inkscape:connector-curvature="0" /><path
         d="m 2617.4,535.145 h -57.35 V 376.004 h -38.57 v 159.141 h -56.56 v 31.875 h 152.48 v -31.875"
         style="fill:#246a64;fill-opacity:1;fill-rule:nonzero;stroke:none;stroke-width:8.26500034;stroke-miterlimit:4;stroke-dasharray:none"
         id="path78"
         inkscape:connector-curvature="0" /><path
         d="M 2693.56,376.004 H 2655 V 567.02 h 38.56 V 376.004"
         style="fill:#246a64;fill-opacity:1;fill-rule:nonzero;stroke:none;stroke-width:8.26500034;stroke-miterlimit:4;stroke-dasharray:none"
         id="path80"
         inkscape:connector-curvature="0" /><path
         d="m 2879.65,535.145 h -57.34 V 376.004 h -38.57 v 159.141 h -56.57 v 31.875 h 152.48 v -31.875"
         style="fill:#246a64;fill-opacity:1;fill-rule:nonzero;stroke:none;stroke-width:8.26500034;stroke-miterlimit:4;stroke-dasharray:none"
         id="path82"
         inkscape:connector-curvature="0" /><path
         d="M 3056.49,567.02 V 441.207 c 0,-20.906 -6.41,-37.441 -19.22,-49.59 -12.82,-12.156 -30.32,-18.242 -52.52,-18.242 -21.86,0 -39.22,5.906 -52.07,17.715 -12.86,11.805 -19.41,28.027 -19.68,48.672 V 567.02 h 38.58 V 440.941 c 0,-12.507 2.93,-21.628 8.81,-27.351 5.87,-5.735 13.98,-8.594 24.36,-8.594 21.68,0 32.7,11.633 33.04,34.895 V 567.02 h 38.7"
         style="fill:#246a64;fill-opacity:1;fill-rule:nonzero;stroke:none;stroke-width:8.26500034;stroke-miterlimit:4;stroke-dasharray:none"
         id="path84"
         inkscape:connector-curvature="0" /><path
         d="m 3242.2,535.145 h -57.34 V 376.004 h -38.58 v 159.141 h -56.56 v 31.875 h 152.48 v -31.875"
         style="fill:#246a64;fill-opacity:1;fill-rule:nonzero;stroke:none;stroke-width:8.26500034;stroke-miterlimit:4;stroke-dasharray:none"
         id="path86"
         inkscape:connector-curvature="0" /><path
         d="m 3389.99,458.785 h -74.07 v -51.164 h 86.92 V 376.004 H 3277.36 V 567.02 h 125.22 v -31.875 h -86.66 v -45.532 h 74.07 v -30.828"
         style="fill:#246a64;fill-opacity:1;fill-rule:nonzero;stroke:none;stroke-width:8.26500034;stroke-miterlimit:4;stroke-dasharray:none"
         id="path88"
         inkscape:connector-curvature="0" /><path
         d="m 871.336,265.504 h -50.395 v -53.027 h -15.828 v 120.07 h 74.383 v -12.949 h -58.555 v -41.157 h 50.395 v -12.937"
         style="fill:#246a64;fill-opacity:1;fill-rule:nonzero;stroke:none;stroke-width:8.26500034;stroke-miterlimit:4;stroke-dasharray:none"
         id="path90"
         inkscape:connector-curvature="0" /><path
         d="m 996.012,276.383 c 0,14.238 -2.864,25.168 -8.574,32.785 -5.723,7.613 -13.723,11.426 -24.004,11.426 -10,0 -17.883,-3.813 -23.625,-11.426 -5.743,-7.617 -8.7,-18.188 -8.868,-31.711 v -8.816 c 0,-13.801 2.903,-24.653 8.704,-32.539 5.8,-7.891 13.789,-11.829 23.953,-11.829 10.226,0 18.144,3.719 23.75,11.172 5.605,7.45 8.496,18.125 8.664,32.032 z m 15.748,-7.742 c 0,-11.77 -1.98,-22.036 -5.93,-30.801 -3.97,-8.774 -9.576,-15.473 -16.83,-20.09 -7.258,-4.609 -15.723,-6.926 -25.402,-6.926 -9.453,0 -17.84,2.324 -25.145,6.977 -7.316,4.637 -12.988,11.265 -17.031,19.871 -4.043,8.601 -6.113,18.562 -6.231,29.891 v 8.656 c 0,11.551 2.012,21.746 6.024,30.594 4.015,8.859 9.687,15.632 17.031,20.332 7.336,4.699 15.734,7.05 25.188,7.05 9.617,0 18.105,-2.324 25.437,-6.972 7.344,-4.637 12.989,-11.375 16.959,-20.203 3.95,-8.821 5.93,-19.086 5.93,-30.801 v -7.578"
         style="fill:#246a64;fill-opacity:1;fill-rule:nonzero;stroke:none;stroke-width:8.26500034;stroke-miterlimit:4;stroke-dasharray:none"
         id="path92"
         inkscape:connector-curvature="0" /><path
         d="m 1072.29,273.988 h 24.34 c 7.85,0 14.11,2.043 18.76,6.114 4.64,4.082 6.96,9.535 6.96,16.371 0,7.429 -2.22,13.125 -6.64,17.097 -4.43,3.965 -10.81,5.977 -19.17,6.028 h -24.25 z m 28.2,-12.937 h -28.2 v -48.574 h -15.91 v 120.07 h 39.75 c 13.52,0 23.92,-3.078 31.21,-9.238 7.28,-6.157 10.93,-15.121 10.93,-26.887 0,-7.473 -2.02,-13.984 -6.07,-19.539 -4.04,-5.559 -9.66,-9.707 -16.86,-12.453 l 28.2,-50.965 v -0.988 h -16.98 l -26.07,48.574"
         style="fill:#246a64;fill-opacity:1;fill-rule:nonzero;stroke:none;stroke-width:8.26500034;stroke-miterlimit:4;stroke-dasharray:none"
         id="path94"
         inkscape:connector-curvature="0" /><path
         d="m 1261.13,212.477 h -15.84 v 120.07 h 15.84 v -120.07"
         style="fill:#246a64;fill-opacity:1;fill-rule:nonzero;stroke:none;stroke-width:8.26500034;stroke-miterlimit:4;stroke-dasharray:none"
         id="path96"
         inkscape:connector-curvature="0" /><path
         d="m 1403.29,212.477 h -15.91 l -60.45,92.531 v -92.531 h -15.92 v 120.07 h 15.92 l 60.6,-92.942 v 92.942 h 15.76 v -120.07"
         style="fill:#246a64;fill-opacity:1;fill-rule:nonzero;stroke:none;stroke-width:8.26500034;stroke-miterlimit:4;stroke-dasharray:none"
         id="path98"
         inkscape:connector-curvature="0" /><path
         d="m 1532.93,319.598 h -38.6 V 212.477 h -15.75 v 107.121 h -38.51 v 12.949 h 92.86 v -12.949"
         style="fill:#246a64;fill-opacity:1;fill-rule:nonzero;stroke:none;stroke-width:8.26500034;stroke-miterlimit:4;stroke-dasharray:none"
         id="path100"
         inkscape:connector-curvature="0" /><path
         d="m 1639.55,267.977 h -52.04 v -42.551 h 60.44 v -12.949 h -76.27 v 120.07 h 75.45 v -12.949 h -59.62 v -38.672 h 52.04 v -12.949"
         style="fill:#246a64;fill-opacity:1;fill-rule:nonzero;stroke:none;stroke-width:8.26500034;stroke-miterlimit:4;stroke-dasharray:none"
         id="path102"
         inkscape:connector-curvature="0" /><path
         d="m 1704.53,225.426 h 56.89 v -12.949 h -72.81 v 120.07 h 15.92 V 225.426"
         style="fill:#246a64;fill-opacity:1;fill-rule:nonzero;stroke:none;stroke-width:8.26500034;stroke-miterlimit:4;stroke-dasharray:none"
         id="path104"
         inkscape:connector-curvature="0" /><path
         d="m 1816.34,225.426 h 56.9 v -12.949 h -72.81 v 120.07 h 15.91 V 225.426"
         style="fill:#246a64;fill-opacity:1;fill-rule:nonzero;stroke:none;stroke-width:8.26500034;stroke-miterlimit:4;stroke-dasharray:none"
         id="path106"
         inkscape:connector-curvature="0" /><path
         d="m 1929.24,212.477 h -15.84 v 120.07 h 15.84 v -120.07"
         style="fill:#246a64;fill-opacity:1;fill-rule:nonzero;stroke:none;stroke-width:8.26500034;stroke-miterlimit:4;stroke-dasharray:none"
         id="path108"
         inkscape:connector-curvature="0" /><path
         d="m 2067.77,228.227 c -4.07,-5.829 -9.75,-10.184 -17.03,-13.075 -7.29,-2.882 -15.76,-4.328 -25.44,-4.328 -9.79,0 -18.48,2.297 -26.06,6.887 -7.58,4.59 -13.45,11.125 -17.6,19.59 -4.15,8.469 -6.29,18.281 -6.4,29.433 v 10.481 c 0,18.086 4.22,32.098 12.66,42.051 8.44,9.949 20.3,14.929 35.58,14.929 12.54,0 22.63,-3.203 30.27,-9.609 7.64,-6.406 12.31,-15.488 14.02,-27.258 h -15.84 c -2.97,15.949 -12.42,23.918 -28.36,23.918 -10.62,0 -18.65,-3.73 -24.12,-11.183 -5.48,-7.461 -8.23,-18.25 -8.29,-32.391 v -9.824 c 0,-13.477 3.07,-24.2 9.24,-32.149 6.15,-7.949 14.48,-11.926 24.98,-11.926 5.93,0 11.13,0.657 15.58,1.973 4.46,1.32 8.14,3.535 11.06,6.66 v 26.907 h -27.8 v 12.949 h 43.55 v -44.035"
         style="fill:#246a64;fill-opacity:1;fill-rule:nonzero;stroke:none;stroke-width:8.26500034;stroke-miterlimit:4;stroke-dasharray:none"
         id="path110"
         inkscape:connector-curvature="0" /><path
         d="m 2182.97,267.977 h -52.04 v -42.551 h 60.45 v -12.949 h -76.28 v 120.07 h 75.46 v -12.949 h -59.63 v -38.672 h 52.04 v -12.949"
         style="fill:#246a64;fill-opacity:1;fill-rule:nonzero;stroke:none;stroke-width:8.26500034;stroke-miterlimit:4;stroke-dasharray:none"
         id="path112"
         inkscape:connector-curvature="0" /><path
         d="m 2324.3,212.477 h -15.91 l -60.45,92.531 v -92.531 h -15.91 v 120.07 h 15.91 l 60.61,-92.942 v 92.942 h 15.75 v -120.07"
         style="fill:#246a64;fill-opacity:1;fill-rule:nonzero;stroke:none;stroke-width:8.26500034;stroke-miterlimit:4;stroke-dasharray:none"
         id="path114"
         inkscape:connector-curvature="0" /><path
         d="m 2453.93,319.598 h -38.59 V 212.477 h -15.75 v 107.121 h -38.51 v 12.949 h 92.85 v -12.949"
         style="fill:#246a64;fill-opacity:1;fill-rule:nonzero;stroke:none;stroke-width:8.26500034;stroke-miterlimit:4;stroke-dasharray:none"
         id="path116"
         inkscape:connector-curvature="0" /><path
         d="m 2587.52,265.992 c -13.59,3.906 -23.47,8.699 -29.65,14.395 -6.18,5.691 -9.28,12.715 -9.28,21.062 0,9.465 3.78,17.285 11.34,23.469 7.56,6.184 17.38,9.277 29.48,9.277 8.24,0 15.6,-1.593 22.06,-4.785 6.46,-3.183 11.47,-7.59 15.01,-13.191 3.55,-5.61 5.31,-11.742 5.31,-18.391 h -15.91 c 0,7.285 -2.31,13.008 -6.93,17.168 -4.62,4.172 -11.13,6.25 -19.54,6.25 -7.8,0 -13.9,-1.719 -18.26,-5.168 -4.38,-3.433 -6.56,-8.211 -6.56,-14.324 0,-4.902 2.08,-9.055 6.23,-12.441 4.15,-3.379 11.21,-6.485 21.19,-9.29 9.98,-2.808 17.78,-5.906 23.42,-9.285 5.63,-3.379 9.81,-7.324 12.53,-11.836 2.72,-4.504 4.09,-9.812 4.09,-15.918 0,-9.726 -3.8,-17.519 -11.39,-23.379 -7.59,-5.847 -17.72,-8.781 -30.43,-8.781 -8.24,0 -15.94,1.582 -23.09,4.746 -7.14,3.157 -12.65,7.493 -16.53,12.989 -3.88,5.5 -5.81,11.742 -5.81,18.722 h 15.91 c 0,-7.265 2.68,-12.988 8.05,-17.195 5.36,-4.211 12.52,-6.313 21.47,-6.313 8.36,0 14.77,1.704 19.22,5.11 4.45,3.41 6.68,8.055 6.68,13.945 0,5.879 -2.06,10.43 -6.18,13.645 -4.13,3.211 -11.6,6.394 -22.43,9.519"
         style="fill:#246a64;fill-opacity:1;fill-rule:nonzero;stroke:none;stroke-width:8.26500034;stroke-miterlimit:4;stroke-dasharray:none"
         id="path118"
         inkscape:connector-curvature="0" /><path
         d="m 2709.89,272.262 31.34,60.285 h 17.97 l -41.39,-75.293 v -44.777 h -15.83 v 44.777 l -41.4,75.293 h 18.14 l 31.17,-60.285"
         style="fill:#246a64;fill-opacity:1;fill-rule:nonzero;stroke:none;stroke-width:8.26500034;stroke-miterlimit:4;stroke-dasharray:none"
         id="path120"
         inkscape:connector-curvature="0" /><path
         d="m 2829.71,265.992 c -13.58,3.906 -23.46,8.699 -29.65,14.395 -6.18,5.691 -9.27,12.715 -9.27,21.062 0,9.465 3.78,17.285 11.33,23.469 7.56,6.184 17.39,9.277 29.49,9.277 8.24,0 15.59,-1.593 22.06,-4.785 6.45,-3.183 11.46,-7.59 15.01,-13.191 3.54,-5.61 5.31,-11.742 5.31,-18.391 h -15.91 c 0,7.285 -2.31,13.008 -6.93,17.168 -4.62,4.172 -11.13,6.25 -19.54,6.25 -7.81,0 -13.9,-1.719 -18.26,-5.168 -4.38,-3.433 -6.57,-8.211 -6.57,-14.324 0,-4.902 2.08,-9.055 6.23,-12.441 4.15,-3.379 11.21,-6.485 21.19,-9.29 9.99,-2.808 17.79,-5.906 23.42,-9.285 5.64,-3.379 9.82,-7.324 12.54,-11.836 2.72,-4.504 4.08,-9.812 4.08,-15.918 0,-9.726 -3.8,-17.519 -11.38,-23.379 -7.59,-5.847 -17.73,-8.781 -30.43,-8.781 -8.24,0 -15.94,1.582 -23.09,4.746 -7.15,3.157 -12.65,7.493 -16.53,12.989 -3.88,5.5 -5.81,11.742 -5.81,18.722 h 15.91 c 0,-7.265 2.68,-12.988 8.04,-17.195 5.36,-4.211 12.52,-6.313 21.48,-6.313 8.36,0 14.76,1.704 19.22,5.11 4.45,3.41 6.68,8.055 6.68,13.945 0,5.879 -2.06,10.43 -6.19,13.645 -4.13,3.211 -11.6,6.394 -22.43,9.519"
         style="fill:#246a64;fill-opacity:1;fill-rule:nonzero;stroke:none;stroke-width:8.26500034;stroke-miterlimit:4;stroke-dasharray:none"
         id="path122"
         inkscape:connector-curvature="0" /><path
         d="m 2998.43,319.598 h -38.59 V 212.477 h -15.75 v 107.121 h -38.51 v 12.949 h 92.85 v -12.949"
         style="fill:#246a64;fill-opacity:1;fill-rule:nonzero;stroke:none;stroke-width:8.26500034;stroke-miterlimit:4;stroke-dasharray:none"
         id="path124"
         inkscape:connector-curvature="0" /><path
         d="m 3105.05,267.977 h -52.04 v -42.551 h 60.45 v -12.949 h -76.28 v 120.07 h 75.46 v -12.949 h -59.63 v -38.672 h 52.04 v -12.949"
         style="fill:#246a64;fill-opacity:1;fill-rule:nonzero;stroke:none;stroke-width:8.26500034;stroke-miterlimit:4;stroke-dasharray:none"
         id="path126"
         inkscape:connector-curvature="0" /><path
         d="m 3174.57,332.547 39.25,-97.973 39.25,97.973 h 20.54 v -120.07 h -15.83 v 46.757 l 1.48,50.469 -39.42,-97.226 h -12.12 l -39.34,96.984 1.57,-50.227 v -46.757 h -15.83 v 120.07 h 20.45"
         style="fill:#246a64;fill-opacity:1;fill-rule:nonzero;stroke:none;stroke-width:8.26500034;stroke-miterlimit:4;stroke-dasharray:none"
         id="path128"
         inkscape:connector-curvature="0" /><path
         d="m 3357.89,265.992 c -13.59,3.906 -23.47,8.699 -29.65,14.395 -6.18,5.691 -9.28,12.715 -9.28,21.062 0,9.465 3.78,17.285 11.34,23.469 7.56,6.184 17.38,9.277 29.48,9.277 8.24,0 15.6,-1.593 22.06,-4.785 6.46,-3.183 11.47,-7.59 15.01,-13.191 3.55,-5.61 5.31,-11.742 5.31,-18.391 h -15.9 c 0,7.285 -2.32,13.008 -6.94,17.168 -4.62,4.172 -11.13,6.25 -19.54,6.25 -7.8,0 -13.9,-1.719 -18.26,-5.168 -4.38,-3.433 -6.56,-8.211 -6.56,-14.324 0,-4.902 2.08,-9.055 6.23,-12.441 4.15,-3.379 11.21,-6.485 21.19,-9.29 9.98,-2.808 17.78,-5.906 23.42,-9.285 5.63,-3.379 9.81,-7.324 12.54,-11.836 2.71,-4.504 4.08,-9.812 4.08,-15.918 0,-9.726 -3.8,-17.519 -11.39,-23.379 -7.59,-5.847 -17.72,-8.781 -30.43,-8.781 -8.24,0 -15.94,1.582 -23.08,4.746 -7.15,3.157 -12.66,7.493 -16.54,12.989 -3.87,5.5 -5.81,11.742 -5.81,18.722 h 15.91 c 0,-7.265 2.69,-12.988 8.05,-17.195 5.36,-4.211 12.52,-6.313 21.47,-6.313 8.36,0 14.77,1.704 19.22,5.11 4.45,3.41 6.68,8.055 6.68,13.945 0,5.879 -2.06,10.43 -6.18,13.645 -4.13,3.211 -11.6,6.394 -22.43,9.519"
         style="fill:#246a64;fill-opacity:1;fill-rule:nonzero;stroke:none;stroke-width:8.26500034;stroke-miterlimit:4;stroke-dasharray:none"
         id="path130"
         inkscape:connector-curvature="0" /></g></g></svg>